<mxfile host="app.diagrams.net" modified="2023-08-31T02:11:56.604Z" agent="Mozilla/5.0 (Windows NT 10.0; Win64; x64) AppleWebKit/537.36 (KHTML, like Gecko) Chrome/116.0.0.0 Safari/537.36" etag="C95Bn6dmruaAOn4VjHH2" version="21.7.1" type="device">
  <diagram name="페이지-1" id="QZwvFwM_inGwRHb3H1L_">
    <mxGraphModel dx="3434" dy="1950" grid="0" gridSize="10" guides="0" tooltips="1" connect="1" arrows="1" fold="1" page="0" pageScale="1" pageWidth="827" pageHeight="1169" background="none" math="0" shadow="0">
      <root>
        <mxCell id="0" />
        <mxCell id="1" parent="0" />
        <mxCell id="UeKgmQtvJm2V4L9KuCcI-22" style="edgeStyle=orthogonalEdgeStyle;rounded=0;orthogonalLoop=1;jettySize=auto;html=1;exitX=0.5;exitY=1;exitDx=0;exitDy=0;entryX=0.5;entryY=0;entryDx=0;entryDy=0;" parent="1" source="HEAWCpbGmRsyPqDrCjQY-6" target="UeKgmQtvJm2V4L9KuCcI-9" edge="1">
          <mxGeometry relative="1" as="geometry" />
        </mxCell>
        <mxCell id="HEAWCpbGmRsyPqDrCjQY-6" value="&lt;b&gt;&lt;font style=&quot;font-size: 24px;&quot;&gt;AdminboardList.jsp&lt;/font&gt;&lt;/b&gt;" style="rounded=1;whiteSpace=wrap;html=1;fillColor=#fad7ac;strokeColor=#b46504;" parent="1" vertex="1">
          <mxGeometry x="-1219" y="-554" width="287" height="53" as="geometry" />
        </mxCell>
        <mxCell id="UeKgmQtvJm2V4L9KuCcI-69" style="edgeStyle=orthogonalEdgeStyle;rounded=0;orthogonalLoop=1;jettySize=auto;html=1;exitX=1;exitY=0.5;exitDx=0;exitDy=0;entryX=0;entryY=0.5;entryDx=0;entryDy=0;entryPerimeter=0;shape=flexArrow;startArrow=block;" parent="1" source="UeKgmQtvJm2V4L9KuCcI-6" target="UeKgmQtvJm2V4L9KuCcI-68" edge="1">
          <mxGeometry relative="1" as="geometry" />
        </mxCell>
        <mxCell id="UeKgmQtvJm2V4L9KuCcI-6" value="" style="shape=image;verticalLabelPosition=bottom;labelBackgroundColor=default;verticalAlign=top;aspect=fixed;imageAspect=0;image=data:image/png,iVBORw0KGgoAAAANSUhEUgAAAQIAAAA+CAYAAADAgBUyAAAMKElEQVR4Ae1dbVMcxxHWz3EZhEFCuiMFAvwigmQcnXBsJ5IrVbEpEttKwQfbshAWqsQpVyqx4gqxE1vyD6D4Efgj/4P8jkn1LL3b29cz03O7J05cf9iafZmXnp6nn+6Zndu78NLkrLPDdGAYGG8MXDAAjDcAbPxt/AEDRgQWEVlEaBioiGB+adXZYTowDIwXBjAiLCMCAMDcwnV39Rev2WE6MAyMAQbA3kUiABJ45fKCHaYDw8AYYODK3GtGBEZ4RvjjjgEjgjFg+3EHufU/TfRGBEYEFvobBpwRgYHAiMAwYERgYWM6bDQdnX8dWURg3sAiAsOARQTm7c6/t7MxTo+xRQTmDSwiMAxYRGDeIu0tTEfnX0cWEZg3sIjAMGARgXm78+/tbIzTYzz0iGD61Vtu9s6f3NVPvnKdz7513S9/8Aecwz14BnlssNKDZToyHQ0LA0Mjgstr77vOp/90c49/Uh2QF8oMq6NWrxmRYSCMgdaJYHph1XW2/qYyfokkoCzUYYMWHjTTjemmbQy0SgQz13/tujvfDUwCSAxQB9TVdmetPjMgw4CMgdaIAAx37tHTxiSAZAB1GRnIg2ZgNr20jYFWiABC+TYigZIETtcVoE6bJhjo2wa91dePqVaIoMmaADd+fg115wzc/Pqie/Phkrv992W3/o9l9+aXS27xt9ey6shpLyfv1Npdd3y04/7380N/HG7Mq+Wa2tj0ZU6ONt3WjL5cjnw5eXu7216e4/2eug859Q+Sd2qm5w6JflHPND052HbHB5vuyW7P9RrqEccE6s8ZS6lvU2s992R/0x0fFHpFmU+OTuXdWBmqnhsTAaz0c+Nt+1r7NmH+7Wtu/Ztl8Vi8uzhURUqDy+9xIsgxagRdThnevva650G57Y53ZfBRgwOgPlk7e2KCvlG50JBSKZDC1gDyT82suCcHFamfDEiIQACHpJ6YvCdAYEMihMZEoHlF2N176mY3H7qpt+64ieWb7uWFN9zEG7fcVO937vLHe25u71mUTKANDYhv7hQksHhn0U3PXvMHnAM5vPXnZVUdmnYGzcOJAAY9ZGy8jedFBBTgMdlGPSIIeeje2orb2gXPS4z4aNsdZhoYH8tBCBHGlEaIx/t33dZanXynUF4S6cTGheNGe92ICGAjUMr7d3a+cxdvvueNHwhAOl5Z/32yHs2mo1tfF0QwM1fNgaavFlHC7W9GhwgANIf7RQioBdCoEYEWYM8zH40IQkRA5eltDD5VQyL0U41TI80xUEokPspLRCVA0Fv7FXlp+kf7mjpvRASwKzBGBJ29p+7izXe98V9cfdt7/86DfV+m8+DfbvajR664/zhaD7QBbaU6A2sC4P15Ppwu8PvP+xoHvzD+aj57cnA3OV81IqjIPTRuuUQA9fjQ/NSQtdOuetTUKw1UM46+TTKt0LbZpFxIX/R+IyK4eu+vUQO+tPGFJ4HJG++67qMf5LyJaQESDbRFBZfOweu/OEQw79C4NVMEzJsDHElHqXt1kNfD1FTZs34+CBGAzKhbzTjQ/BjN0fIaT43RBLSnyU/1Svs46LoErQ/PGxFBan0ApwSz976SSUC5/RjIQLNOcJtFBBgJaFNUyrDSekQw76jRpQwcwZbKB7IXK9Cw2lyFkh7kkcUmCk7IKx0UtBimpsBYznEFWfh8mOodwvZDtoJeLOyFyYkaCZWV1iud18ZBEZ2VfT/NS9tN6oNGA4q2JHnL9lt8g9SICLq7/40a+MTSDR8RBKOBDCKAtiSl0Hto8HgPr7UplhtWyokA2sF7YHgxEGmIAAC9dbr2IBky3oPVZ/4KchhE0INFObLIhe1jKpGapg+huTg1yBwigHHA/qOXD2GAtkHl0BonHe9cGVEmxALocdA6sC5MnxMRxAkDw/9YqiEC7BSmWgLAfFhuWCmCgIMNQRgbWBx8yXhQXgQj1APv93tkAar0zDgfFsgA6qHekQId28AU2wqRF+0T9+TQRuHx+wmprBcWVMm7fk4QkgFQI5Weo+xSimMTGwMoh/3iY6gtX43j4K9daT9jYyT1M3SvERFopwZX7v0lGjnECACfaaYGvJNo4NqUl2/7GsHSByIaLgbCvQpA/cYDcuLzAsiR8JlsapJA1AYRUFmkNkJ6peVChlwZYr8eqIGEygfbJnoJlaW64QRYexYJ+WPyh2Tj92k/uRw8r/a6EREkFws/uF+8MVhZd93d/4hk0HnwL9d9+L34DEkAUs1iIe+0lgAwHy/f9nWICKAdfOa9ubCRB41EighqIFRsbImBkdYVM+LSc7P2aPkckGrLUSPgBht7lhpLWjbUbzpGvG2ov9Jr2NuXeSJkkZa12syUo+NYvY2IIPX6sPv4mZtcfceTwcTrv3KX/7Dr/OvDvWeu8/m37tKH993kq2t+n0H30Y9RMtC8PuQdRQPXprx829cIJB4RYDslSITdelEiOPVmoXqxfkxRDikMpgYZMgioJ0gEmbJwmTR9wLa5fNSYJUPFtqSUluX1Yn5sVyJjyEP1mqzjPBGBakPRg30Hrw+ljUR4b/o3f0zuLtRsKMIBw1RLAJgPyw0rRaCEwE7ByN9JR4kg83cIMWOPPaN6KY2CRwSZsmCdZf8UBhJsm/zWIJsIElOD2tiwPpd9UEzxKrLvn9pgPamUyhIinFQd/HmjiAAqS60TQFgPkcGlD+4XOwyXVt3Li790Eyu33fQ7m+7K9tfRSADKD7I+ALKhgWtTrpy2r1NEAO2hQfApAt6XvFEJLoUR+TYIYDmQmhJBriyoYywH/dYePCymBpJNBCWByWE96l+KorAPkNJ+SDLg85AzoHWFzmk/+fiFyqTuNyaCUfrREe+slgAwHy/f9rWGCKDN0uORhUMEohFBRRRtEoGkczr++FxLUpCPywf1IQZShELb5ucVFmTS4vk1142JABoZpZ8h006jgWtTWnYY5wiClDegjI9gqga/P6SsvEz/M6kf1Otzr0WfxbwNGgbKh+2Usiijk6blsDykVG+8XzQfP6flpD7juOWQgCcCaa2HTF/49I/LFboudZ+p41B9cL8VIrAPk6T3wYOyEVApIvB5T0NV9BwxIsipNyVHUyKo5MzzVlU5HZlBP/hBDTqHCErDIhEYrbskt8BzmhfOcTxg7CRiwfpwbHn52HWq7ljZ2LNWiAAasE+V9QOTKx4HUUMEULYG0HI1vt9QqAFwD81lgGsEouSRGhMB8XiSEUjywD3ahxwjpvUNUkePEK4kL9WHRrdFX8jrPcFrUzmlqR7tEz2vyaIkJVo+dt4aEUAjQAZtfLLsvH68NJcIML/3LPD1mqMdFwIOGnfhZXQbiiSDq4EtsDoOY12SlJCnLov+oyVlnQBysisyBmD6jBqY1Ld63vp27NCXljBSyfXeqXL0ud/ynegvHZdcWWi/Q+etEgE0AtOEJmsGUPa8fqcQDVsbEYA+qVEBAEJEwIHSt8UYfodA9v7HvBu26eUMfLCjNFqBCDSySFuMqSFD2/CxEPo5MajXfz0J+iG2W/20WyKCsvz+du03EFIkgAZT9jPTA9f6IsgK9QMZ4G8xoL/FmNVJ3H9Ihchb6EVPrtiPVNo6EWCD8DZB82oRdw9CXu0nybCNFy0dhAi4UYWIAHTh8yp+dOQBF/leH8oJxEMPalylgYRATl5R0jroudQX7ae7JCKjxkfbCZ2nPDGtL0YWIRyWOoqQiLa/0IeUvCE5NPeHRgTYOGwEgl2B9pdn1SKS97SJUBD1Byk1TMl4aF44L785SH75V3gc+BSWzptIAM0hApQJf06Mnq8ANHi/sCxAaPxzYr4cfsiT/BgJ24GUGq5k/F4HB5vFj5kUeqhFRor8VBYvD9mklCKScszYz7X9F5CET5jxtppeD50Imgpo5dOLkKYj01FTDBgRCK+hmirVypthvmgYMCIwIuh7H/+igdjkbU68RgRGBEYEhoF2dhYaIzdnZNOh6fAsMWARgXkDiwgMAxYRnCULW9sWBYwKBiwiMG9gEYFhwCKCUWFkk8Oig7PEgEUE5g0sIjAMWERwlixsbVsUMCoYsIjAvIFFBIYBiwhGhZFNDosOzhIDFhGYN7CIwDBgEcFZsrC1bVHAqGAgGBHMLVz3LAEZ7DAdGAbONwbA3l+anPXHBTyxtFCI6cH0MI4Y+D9ULF085hf7EAAAAABJRU5ErkJggg==;" parent="1" vertex="1">
          <mxGeometry x="-1202" y="776" width="258" height="62" as="geometry" />
        </mxCell>
        <mxCell id="UeKgmQtvJm2V4L9KuCcI-23" style="edgeStyle=orthogonalEdgeStyle;rounded=0;orthogonalLoop=1;jettySize=auto;html=1;exitX=0.5;exitY=1;exitDx=0;exitDy=0;entryX=0.5;entryY=0;entryDx=0;entryDy=0;" parent="1" source="UeKgmQtvJm2V4L9KuCcI-9" target="UeKgmQtvJm2V4L9KuCcI-21" edge="1">
          <mxGeometry relative="1" as="geometry" />
        </mxCell>
        <mxCell id="UeKgmQtvJm2V4L9KuCcI-9" value="" style="shape=image;verticalLabelPosition=bottom;labelBackgroundColor=default;verticalAlign=top;aspect=fixed;imageAspect=0;image=data:image/png,iVBORw0KGgoAAAANSUhEUgAAAXYAAAA8CAYAAABy6pHbAAAQeElEQVR4Ae1d63IUxxXmcVwGZAECSSmBwI4tYyyHBcdOglKpiqNSLiYlfsQhCHGphJQrlZhQUZyEQB6A0kOQn3oP5Tk6dXr26zk66suZ3RmxOzo/Vj2z05dz+c7XZ3t6RifeOjXn8Fm6fNXZx2xgGDAMGAamFwPE5ydA6lSSMxcvfuAufOc9+5gNDAOGAcPAlGGA+DtK7ETq75y7aB+zgWHAMGAYmDIMnF98z4jdJjCbwA0DhoE+YcCIfcpm4j6Bz3QxMjUMdIMBI3YjdvuZbRgwDPQMA0bsPXOoZUDdZEBmV7PrNGHAiN2I3bI1w4BhoGcYMGLvmUOnKaswWS0LNgx0gwEjdiN2y9YMA4aBnmHAiL1nDrUMqJsMyOxqdp0mDBixG7FbtmYYMAz0DANG7D1z6DRlFSarZcGGgW4wYMRuxG7ZmmHAMNAzDHRO7LPvXndzt37tLnz5xM1/9cwtPHjuP3RM39E1qmMzdzczt9nV7GoYOH4Y6IzYz63+2M3/5q9u8fF/VB+qS20MhMcPhOZz87lhoF0MtE7ssxevuvnNP6nIPEb61Jb6MEe362izp9nTMHB8MNAqsZ/54PtuYevbkUkdRE99UF8GxOMDRPO1+dow0B4GWiN2IuLFhy/GJnWQO/Vl5N6eoy1ozJaGgeODgVaInZZO2sjUA6kP1+WpT1uWOT5gNOI5Gl/PnFlxT19tuf/9977b216xX8ZvaEfMYPuO98H+qzU3OLPUqh9aIfZx1tQlmctz6rtJwC/dXHYf37/sbvz5irv5lyvu4weX3fKPLjXqo8l4TerOrK65vddVQFFQ7a7rnTmzvlGB4PWG22wZBE10QF2Acm9nMBG2Jblg3/2GNpo0XeDrphiBb0rlpBD7m7L7YH3N7e7ccXvDyY3sTJ/9V/Tdhnu6vtI60cZ8Av0nkthpJ4sk47bPtbtllj695G5+cyX6WV5bfuMEBOIJQGpAQAj2pqQVA1Tpu8HqwD0l4CeyuZkzA7c7nKD2X99xT1f1E1Rp7HGuw75NbNSVLiUbpvTkpOvJpoOJk4+R8nFKvra+78ruOfkG6xsHEivEYayM2WVUn6Zkmmhi12xpXHj0ws1t3Hczn9xyJ69cc29ffN+dfP+6mxn8xJ371SO3+OhldnKgMVLG4d9f26pIffnWspudu+Q/dExk/8nvr6j64P21fQzi4UCKASg27lERuzboAUrL2A8vn2htGPWz+FXXxcQ5jnwxmUf97qgwRPpu7tS/lCkz390euIFISGZWVxxl87GkpgubQf+Jy9jpwaJSdj6/9a07fe0HnsyJ0GOfd27+tNiP5iGm619XxH5msQ622QtVFn/jm8khdgpW+inoMzJlxjtpxD5qMHfZDhNnk4y9C3nGIYE62O+E7FI7+Wt1GUc+7RiTUo/r6uNufbR7CryftvxR+3rC1tjpqdEcsc8/euFOX/vck/npq5/67Hz+3o5vM3/v727ulw9d9f3jbD80Bo1VAgutqVN2LutheUZ+f9TnNfHQ8gVbzlDcPDFiryfrlN9q+77Z+xCjksDBdoOQZbad0R0cZzSiS/lg0r4HeVIS1eSeltSjC5tBtrb9S7KPdfP0wu0/Zgn57PrvPKmf+uhzt/DwebxuYRkGEweNJY0tzykrnx5iX3IgawJdKQtA3a6z0S4ALP3U1fnUE3u4QV7dt4DPxyUlae9p9rHUJXcOPGjiK9cPXevCZhNL7KX1dSzBzN1+Eid15esGiNw16+w3RMaOTF1blpw77nUADeumHCwlwkaQl+p5EOLmp7jrjzv+MT0AMgqC1IdnPFiz3C/c3KN1y83tjUM7EEiWzdV0tuh3LryqlqsgT6lNbd9mGXtJF/KT1IF8uLez5jbZOm1TG0o/BDmGv+AO3GAs2Fn2lbbfUpGkoAcyyZkhnuCHSvfBgZ0jwUZs15dfy84sfQR9I7oFGYbXfP90Q/9A/9UOFqk7zkP/DTYpoC1KyAHdYyWPCxmnPsaHy67Ulidw6Bt2xphtlGNl7Avb/8oS9snLH/mMPZmtNyB2GqukMAgc9XCuLdGuq7ImnnonCb4jp+dIUgImJiPAHwMf/26fSFVsmQTIeD15zAEcgiYSlJBtQITOAlH2F5ukNDrw4MBYVMKWsX55PXmc04X63BUTJNeDB2VTG3I5OIlz/YJsSnLyRJKRl2TfXc/vY4ceXjdxMzemu5c9MybXh+scdItgKMiwMwh+5WPz41j/KXvy8TXHkIOPJ495XByM08Eh7HBZ0TfHkEYmTZ0jIvb8BIDlllypIXapsJbQUU+2b/u8Jp6a2GkMOJgAw0HCxz8ImPj2QgQK9UO7Vfhd/5A5Y5tihNxpPE4MHIRcFjrGWKnJiOskM20ao8ooD08woV+6wUw7F4YTkCT8mJ1q+x7uV8rPz8OYgmA4OfjJkGXnQYedwze+tDbkMsBe+DWHa9Aph41Qlz14RP1w+1Gdyub17hCPk8iW1iAL7et+veWIePDLRPphb3vAHnZi/qJ7SEOylzpB3pTdvax4eGdnw2+trexf/8IbsAk31n8dLwdjDWM3LbU+rcfdcLs7W84nGQw3fNzazocxxOuNcjwWsWuXYs7f/kM2s88ROq5plmKkAUDY2lK2b/scQSqByEGTyjY5YGS2TXLiekUAdQBIHSBDKqi5LKMSO5cl18ch2YZrzDkSC8EQyWChW8qGcjycpwgGejTtT2tDjM/ry4nywLXCTXbIm7Mf7y+FAdiYrqeySdiM6qT64RNjDAfoQ+pMdtHIAH/Hxkf7pr6DT2TJ7RbTBfW5D2Scow7KIGPBr6jfpByL2Is3T7+4W+2IWbnpFrb/GSX3+Xt/cwv3/xG9BlKnUnPzVCquJXTUk+3bPgcQYw7HtRhISQ4AJgZUDrpYkEg9AqBi5MiyvhyAU0HZVBbIpm3HyUJm7bBhzEYYJ1amdAl2ahh4XJecDSEL5CbfS52oTpAjszWWj1nCAB8vJp9qPLZEkyJ/kj1l29I1yJCyCWwX+hc+QvumWEC/suT2jdkM9RGnqThGPSqDjEJ2XmfU47GIvbTdceHxS3fq6mee3E9+93vu3M+3nd/u+Oilm//tM3f2Z3fdqXdX/T73hYf/zpK7ZrujNAIIW1vK9m2fI6BixE5jBUdHAhiAiQG11K/UA/VjQaMFcAgouXwxDPiUjlIWnEMmTTuMLQOs7qOlpRjFLwjIz0utDdEG+sR8S3WgV44sUEdjv5J8NQ7TduQTrPQD9KIy9BUhr6C3wFCpnab/MG4keeHttcclm6GfOk7LS0BBxoht0N+o5VjErnpA6d6Oo+2OsQeT8N3sD39RfPpU84CSNIKW0FFPtm/7vBR8PFhkFlQD5nCw5a7FdMiBNHeN95UKyqayoM/QTgHy5NhhUjlsI4wTK5P9sV8vnlTFLphYX/Sd1oZVXfY8Q4TgZH9J8g9bJcu6l+TTEA7HauxXBmyT6ytld2qba4e+vW0Seof2b4zYy34IMiowz3XWHI9F7DRAaZ2dllEocz/7xd3qCdTLV93byx+6kys33OxnG+78na+zmTq1H2V9nWQDYWtLjcHGqVMiduobBCezM3wfC+ymAMkFdu4a1z0VlE1lQZ9oR3prP3LJobZvOagwLpUpXegatwfkoht59KIo3gc/5m1y2azvX/mrgNsnRqS4LhMCLheOS/Jp+joyYk9MdkGXBLHX8VLOnNFXrizZDG3rccsY1NgZ/TYtxyb2SXoJmFReS+ioJ9u3fV4TTx5sgWhYtpEDTFOA5ECau8btEWQUgddUFvSJdiBPTXkUxB7kozcCii19cqcM6mptSPVhR42+qCP1pn5gPyP26gllxBrZLDYRwlfaUuvTXJzKsZr4TLYtnY9N7DTAJL22lysMwtaWvG0XxwBbaR2UZ0MI4hxgAkDYRJCTn4NUgp5fy2WbICTIh/GCLA1/Xo7aDuNSWdu3nC3xdildeB0c+22j7IGT2C8orQ0hLwhbW8bw08R+Jfk0fXGMSgzBVlTm+srZPbQTiQPvm45TccHl00x2sl95XrIZ6qfkwXVeBh0bxgrvI3XcCrHbP9oov8eEHIBAjgWmdBAAgowD51EiCWvL+V8CGCMnhxbAqaCs5dTJEmRK/KTGdU1Z69UdsUMOjEX+kROg1oYhsLUTMtuJcmjMYL+y3TnpyX5IvyBXhnB4H5NI7FwPxBB8N0qp9WmN/zIGNXYeRVZq0wqxU0f2r/HK5A4y0BA72TSQJwV+IO/DgOFBJjPoGDBygNICOMgmMiouS4w0YvLQd7xdjihS7X0fGRvl2qV0ybXJ2Sl3DX3yOhqfef3YzVyZhQJbsYkGY6KE/1N1cV2OgfaVLPVN35y/cn3l7B7aCXxxGbwcYUIrxIVy8pT945z7K4fr3hE7GYDIvY1/kdfXf2aN4NMSO+r7ANypHs+PZexkewRClZ1kbuyxrC8WkBzAOcLRBGUlS/wpWQQML0OffiLTt0MfsFfKRqgnyzBugUR4O24nGej8WsqGIICmNsq1C3pEtstCdtiIxqWPlJ3qAUvTTuykC7eXx0XiKVDYJ1VqfMrH02BQY+eUPKXvW8vYMRAty4yz5k5t+/p/ThFUWmInm8L5CMQUYDjwfMDKVwrgRVZ4pUCGxDCmlzOx+yOQSKQfjSyxVwrwrJ3Gpnea4JUCZAvq1/8XG3oHTWzcljN2/64bv8VRyEEvNiu8T79kw2C/hpnkARsJGwBf5H9pP2+74X8Qopu+uBHcd2L3uBH/Oal6edtBn/pYy/yjDR6LubjARJKKU+oHn4CRzJIX6jYtWyd2CEC7ZTRbIfF0KdXV/gs8jDFtJQLPA0OZOUiSzAHG12U39jAZyNK/R0a8BIzbEnLKdjzDD8QkyAX9SLllX3Qe04XeJAjSibXBd7FMOCU32vCSt0/pgsDj7fhxRZ7xXxYpWciGnJxjxAobpsogb2RSIGLJvnjNvyOowUvAEjjhOnBcSJlhw1j2H/SIYCi0i1zjY2iJVIsr+Dfml5xPIZNWHqofdJwmYoei9GARPTV64csnbv6rZ27hwXP/oWP6jq6N8vAR+p+mEsBoQuykH9oR6GJkKG0Q/jcje7MijSlfMyvb8fNYIPAAzgUl7wevj+Vk4/9pcOZhH5oU5GtyK92H/2yYvRyMj8XthABNlRpiJzn8/8kUrw8O/1otQXqQKWXDENCZJRP0ESu5nnECqn5RSJvjpWB80o21D/JlCGfaiB12DLEhtq4STvboX+btrOWfUYgkHjwujg2xw6BW1j/BzBZmC8OAYaBLDHS2FNOl0Na3BYVhwDBgGEhjwIid3cwwoKSBYrYx2xgGpgcDRuxG7OEuvQXu9ASu+cp8lcOAEbsRuxG7YcAw0DMMGLH3zKG5WdyuWZZnGDgeGDBiN2K3bM0wYBjoGQaM2HvmUMvIjkdGZn42P+cwYMRuxG7ZmmHAMNAzDBix98yhuVncrlmWZxg4HhgwYjdit2zNMGAY6BkGjNh75lDLyI5HRmZ+Nj/nMGDEbsRu2ZphwDDQMwwYsffMoblZ3K5ZlmcYOB4YMGI3YrdszTBgGOgZBpLEvnjxA/8PUamCfcwGhgHDgGFgejBA/P3WqTl3gv7Yx2xgGDAMGAb6gwEjdpvYbGI3DBgGeoaB/wNL6vgF+CfAhAAAAABJRU5ErkJggg==;" parent="1" vertex="1">
          <mxGeometry x="-1263" y="-381" width="374" height="60" as="geometry" />
        </mxCell>
        <mxCell id="UeKgmQtvJm2V4L9KuCcI-17" value="" style="group" parent="1" vertex="1" connectable="0">
          <mxGeometry x="-1819" y="-849" width="973" height="210" as="geometry" />
        </mxCell>
        <mxCell id="HEAWCpbGmRsyPqDrCjQY-3" value="&lt;font style=&quot;&quot;&gt;&lt;b style=&quot;&quot;&gt;&lt;font style=&quot;font-size: 36px;&quot;&gt;WEB-INF&lt;br&gt;&lt;br&gt;&lt;br&gt;&lt;br&gt;&lt;/font&gt;&lt;br&gt;&lt;/b&gt;&lt;/font&gt;" style="rounded=1;whiteSpace=wrap;html=1;movable=1;resizable=1;rotatable=1;deletable=1;editable=1;locked=0;connectable=1;" parent="UeKgmQtvJm2V4L9KuCcI-17" vertex="1">
          <mxGeometry width="973" height="210" as="geometry" />
        </mxCell>
        <mxCell id="UeKgmQtvJm2V4L9KuCcI-16" value="&lt;b&gt;&lt;font style=&quot;font-size: 24px;&quot;&gt;index.jsp&lt;/font&gt;&lt;/b&gt;" style="rounded=1;whiteSpace=wrap;html=1;fillColor=#fad7ac;strokeColor=#b46504;" parent="UeKgmQtvJm2V4L9KuCcI-17" vertex="1">
          <mxGeometry x="154" y="108" width="169" height="53" as="geometry" />
        </mxCell>
        <mxCell id="HEAWCpbGmRsyPqDrCjQY-2" value="&lt;b&gt;&lt;font style=&quot;font-size: 24px;&quot;&gt;admin&lt;/font&gt;&lt;/b&gt;" style="rounded=1;whiteSpace=wrap;html=1;fillColor=#fad7ac;strokeColor=#b46504;" parent="UeKgmQtvJm2V4L9KuCcI-17" vertex="1">
          <mxGeometry x="660" y="112" width="169" height="53" as="geometry" />
        </mxCell>
        <mxCell id="Npa9Y6lDgFgyrHnARazE-2" value="&lt;font style=&quot;font-size: 14px;&quot;&gt;&lt;b&gt;관리자&lt;/b&gt;&lt;/font&gt;" style="text;html=1;strokeColor=none;fillColor=none;align=center;verticalAlign=middle;whiteSpace=wrap;rounded=0;" parent="UeKgmQtvJm2V4L9KuCcI-17" vertex="1">
          <mxGeometry x="715" y="77" width="60" height="30" as="geometry" />
        </mxCell>
        <mxCell id="Npa9Y6lDgFgyrHnARazE-3" value="&lt;font style=&quot;font-size: 14px;&quot;&gt;&lt;b&gt;사용자&lt;/b&gt;&lt;/font&gt;" style="text;html=1;strokeColor=none;fillColor=none;align=center;verticalAlign=middle;whiteSpace=wrap;rounded=0;" parent="UeKgmQtvJm2V4L9KuCcI-17" vertex="1">
          <mxGeometry x="209" y="79" width="60" height="30" as="geometry" />
        </mxCell>
        <mxCell id="UeKgmQtvJm2V4L9KuCcI-18" style="edgeStyle=orthogonalEdgeStyle;rounded=0;orthogonalLoop=1;jettySize=auto;html=1;exitX=0.5;exitY=1;exitDx=0;exitDy=0;entryX=0.5;entryY=0;entryDx=0;entryDy=0;" parent="1" source="HEAWCpbGmRsyPqDrCjQY-2" target="HEAWCpbGmRsyPqDrCjQY-6" edge="1">
          <mxGeometry relative="1" as="geometry" />
        </mxCell>
        <mxCell id="UeKgmQtvJm2V4L9KuCcI-33" style="edgeStyle=orthogonalEdgeStyle;rounded=0;orthogonalLoop=1;jettySize=auto;html=1;exitX=0.5;exitY=1;exitDx=0;exitDy=0;entryX=0.5;entryY=0;entryDx=0;entryDy=0;" parent="1" source="UeKgmQtvJm2V4L9KuCcI-19" target="UeKgmQtvJm2V4L9KuCcI-29" edge="1">
          <mxGeometry relative="1" as="geometry" />
        </mxCell>
        <mxCell id="dkHJhAdtGxxNUYU7T9ZQ-3" style="edgeStyle=orthogonalEdgeStyle;rounded=0;orthogonalLoop=1;jettySize=auto;html=1;exitX=1;exitY=0.5;exitDx=0;exitDy=0;entryX=0;entryY=0.5;entryDx=0;entryDy=0;shape=link;strokeWidth=4;" parent="1" source="UeKgmQtvJm2V4L9KuCcI-19" target="UeKgmQtvJm2V4L9KuCcI-21" edge="1">
          <mxGeometry relative="1" as="geometry" />
        </mxCell>
        <mxCell id="UeKgmQtvJm2V4L9KuCcI-19" value="&lt;b&gt;&lt;font style=&quot;font-size: 24px;&quot;&gt;NoticeList.jsp&lt;/font&gt;&lt;/b&gt;" style="rounded=1;whiteSpace=wrap;html=1;fillColor=#fad7ac;strokeColor=#b46504;" parent="1" vertex="1">
          <mxGeometry x="-1687" y="-188" width="211" height="53" as="geometry" />
        </mxCell>
        <mxCell id="UeKgmQtvJm2V4L9KuCcI-41" style="edgeStyle=orthogonalEdgeStyle;rounded=0;orthogonalLoop=1;jettySize=auto;html=1;exitX=0.5;exitY=1;exitDx=0;exitDy=0;entryX=0.5;entryY=0;entryDx=0;entryDy=0;startArrow=none;startFill=0;" parent="1" source="UeKgmQtvJm2V4L9KuCcI-21" target="UeKgmQtvJm2V4L9KuCcI-26" edge="1">
          <mxGeometry relative="1" as="geometry" />
        </mxCell>
        <mxCell id="UeKgmQtvJm2V4L9KuCcI-63" style="edgeStyle=orthogonalEdgeStyle;rounded=0;orthogonalLoop=1;jettySize=auto;html=1;exitX=1;exitY=0.25;exitDx=0;exitDy=0;entryX=0;entryY=0.5;entryDx=0;entryDy=0;" parent="1" source="UeKgmQtvJm2V4L9KuCcI-21" target="UeKgmQtvJm2V4L9KuCcI-28" edge="1">
          <mxGeometry relative="1" as="geometry">
            <Array as="points">
              <mxPoint x="-799" y="-175" />
              <mxPoint x="-799" y="-322" />
            </Array>
          </mxGeometry>
        </mxCell>
        <mxCell id="UeKgmQtvJm2V4L9KuCcI-21" value="&lt;b&gt;&lt;font style=&quot;font-size: 24px;&quot;&gt;NoticeListAdmin.jsp&lt;/font&gt;&lt;/b&gt;" style="rounded=1;whiteSpace=wrap;html=1;fillColor=#fad7ac;strokeColor=#b46504;" parent="1" vertex="1">
          <mxGeometry x="-1220" y="-188" width="287" height="53" as="geometry" />
        </mxCell>
        <mxCell id="UeKgmQtvJm2V4L9KuCcI-32" style="edgeStyle=orthogonalEdgeStyle;rounded=0;orthogonalLoop=1;jettySize=auto;html=1;exitX=0.5;exitY=1;exitDx=0;exitDy=0;entryX=0.5;entryY=0;entryDx=0;entryDy=0;" parent="1" source="UeKgmQtvJm2V4L9KuCcI-24" target="UeKgmQtvJm2V4L9KuCcI-19" edge="1">
          <mxGeometry relative="1" as="geometry" />
        </mxCell>
        <mxCell id="UeKgmQtvJm2V4L9KuCcI-24" value="" style="shape=image;verticalLabelPosition=bottom;labelBackgroundColor=default;verticalAlign=top;aspect=fixed;imageAspect=0;image=data:image/png,iVBORw0KGgoAAAANSUhEUgAAARsAAAA+CAYAAAAbO78QAAAM4klEQVR4Ae1d/3IcRxH246QiWZEs2SdRkiUlxEJxFHxWSACLooqgEj9iSvoDMJYVywWhUhTEpDgCBJsHUOkhzJ96D/EcQ/Xcfbt9fTOzPbq99d1V/6Ga3duZ7p6er7/pndldXXtjdsmtbmy7lbU77ta33rE/84FhwDBQGwaIV4hj6O8ayIaI5q3FNfszHxgGDAO1YeDmyjtGNkasNrEYBkaPASMbm7lqm7ksYEcfsJPsYyMbIxsjG8NAIxgwsjGgNQK0SZ6RzfZ6MjYjGyMbIxvDQCMYMLIxoDUCNMsO6skOJtmPRjZGNkY2hoFGMGBkY0BrBGiTPCOb7fVkZUY2RjZGNoaBRjBgZGNAawRolh3Ukx1Msh+NbIxsjGwMA41gYKRkM//2Pbf04Ffu1qefu9ZvvnLLn33j/+iYfqNrVGeS2dpstxnbMKDDwEjIZnHnR67167+6lWf/Uf1RXWpjg6YbNPOT+WkSMVAr2cyvbbvW4Z9UBBMiImpLMibRkWazEYBhII2B2shm4c733PLx11cmGpAPySBZNnDpgTP/mH8mDQO1kA2Rw8rTF0MTDQiHZBnhWDBNWjCZvWnMDk02dNtTR0ZTEE1vnYdk2i1VevAM3OafUWGgfXLk/vffJ+7ybM+1F1ZrudMYmmyGWaORBCPPSXaOM1d31937Tzbc/T9vut2/bLr3P9tw6z+8nSUjR19O3bmdPXfx6tgPIA3i+b5+AOf2D7oD/+rAHdY08Dm2y7oA4kWnPRa+Jfvg38tMH41bX9r7e+68c+QuzkqsdIOefjtwz/e3agt+Oa78HH4ZG7KhHSRJEHWfa3epVj+87Xa/3Az+re+tv/agQDAQcDx4MoKiSbJp77TdcwL7yVbQZ3MLbXfeI83LV0fu+Y6eNDmY6z6Gf3PIZlR9qfJhqO/t/YO+yQg4CZWhsbmKzpAd+G3syEazvb18+sItHTxxcx88cDObd92ba++6mXfvubn2j93iL0/dyunLJGGRDjggVd497hLN+oN1N7902//RMRHQB7/fVMlIyR/2GoKBgycEmpCepshmbmHLPe/NqCnbAETLbAZv47Q+xDhT/cNOmcVcnh2585O2awsSn9vZcpT1hCaCXJ3QnSoxxmOR2dDDeFVZTOv4a3f97vc9wRDJhP7e2v1JpRzNg3/3vuiSzcJKCYD5W91s5/6X40M2lA1QmtzNbnSZwbiRTQqkr+sayDwnsxmFrTmBz+t6XOyHs8kqO7mc1CRRJYdfHyuyoad/U2TTOn3hrt/92BPM9e0PfRbTetzxbVqP/+6WfvHUdX9/lpRDOkgXd0TomNZoKIuR13BrJX9v+rwMBiIYdiuiWIAzsiknkNi4lf59vetaOYGPgKaJJ2cNT/ogR6dsGzuHbWOR2dx6+MckSdzY/50nmtn3PnbLT78J1624hQKZka6YU/A7ZS+TQzarDgRCQKuajVB31LP2KECL8Rl1OWlkA3s141/lu1GM21iRTdV6DW6flh5+HiYa5asMRDiadZv7IrNBRqMtqwZ02OsAFxZVOUCqSCSHbOawwCt2M7CTEeoHgEXAj/3xmRdrDJcVu1G0znB4cjCws0K2HO7Ebxn8jsxZ91YT9lS1Kf2bl9lU9YXGSfaBxvCis+cO2brKlX2YsVEgxy5Xp8SRx2Dvll6SHmSPRWazfPKvJInMbLznM5toVpNBNqRLOlqeg1TwO861JdqNqiyDoVynwW800KnAlSAJ2eiDggEHQSrLSwp0sX0OYMm6/DyXbNpEMmyrn8ui4xDBavoQywLhy5DckL/wW4psSOa5IG3eDx6IOT7ku2Cx/sC+VJmjk+T046g90DduC2TzPqZs0Vy78nM2erJJkxJulVKlhmxkZ7Ukg3qyfd3nZTCUZEM6MKgEYh7QXH8/SMJbzQgakkO7RHw3o8gwsGUdIBzS52c6xW4UdMUIkvdJZiSko5u5DJJeIZcW0WlHpkeKkoRCfir9OyiX+1IeFzpFlsYJwRM0y2KKPnQGH3jT+LAcz34sSNu05xqdJKvUe+DOO8ddwmf94vowhmNBNtrbqJsP/5DMgFIkg2ua2yjuKDoGiWhL2b7u8zIY+gHGgRKblTlIZFZCduJ6l7DityewwRNS4Dkabguf5aQvYgEqbUnJkDL7+xAm1CIAArce6FvMh1IfzmN9gT258jQ+TPUDduWUGp0kD32i8cftfExPYaNiAyMmQ/5+5cymcoH4k0fdnaitXbd88s8g4bQe/80tP/lH8BqIhkrNArHsmJZkUE+2r/u8DIZ+siE9uBYlgcQTxBxosUyD96UAUShglc/ZRAOUtdfYAru0feDZhsxu4MNccoj1pfBTZrDxvsTItpAdGAP4JKfU6CR5nGxitkFvYWNm/9E+VF6ZbKq2vpefvXSz2x95wpn59nfd4s9OnN/6Pn3pWr/9yt346SM3+/aOfw5n+em/k4Sj2fqWnQOJaEvZvu7zMhgGyYZ0FYMbeCoXIAkFUpVc2Q/U72ZB/RmEFrSxAIXsqlkzZpOmHXTLYCl113Qb1SP4kJ+k/fxc48NyrPNs5Xr4sUYn1S9xFMYgl1nYOA5ko3qo73HH0dZ36GE+/Db/g59XPkWseaiPO4qOtSSDerJ93edlMIQHms/a8j65BMkgOFPXQn1IATN1jctCwMvsJdcWyCzaKYAd1d179yxEyNATKqPyWJbmM06x+xSSRb9pfFgE8mvKbDQ+KmxUjEnMF/L3K2c2JKhq3YZugSjDufHJo+6TxBvb7s3177iZrftu/qMDd/Poi2RGQ+2vsl5DtoFEtKV0TN3nVWRD+hB08nYKv4dAkguKVDCkrnF/xAI01xbIRDvqt/ZvgOhqJhs/HoJwyDZaLKaXIWG7LDU+LMczPPFImVXnGp0ko9Q7OGlJHRgTOfHJejnnQ5HNOL2IKTutJRnUk+3rPteQDeksApnNeimQ5IIiBczUNe6Pwkaxg5NrC2SinZZofNAL3aV/qwMJevv8LeTxOt3ds/L9JZAOf84G9TU+hK0kR649QU5OqdFJ8lI4kvowJmNDNmTgOH1igjsMJKItedtRHANgVesSfbdTvQBIgaQABSOnlP0cmBLo/JpcE+EyR0U2wwC79G/9ZIO++0cI2LNMoUxT48O+Ma7hNkWjk/qQwhH6iLLAVQ32QeZQmQ0JsY9nVb+3Q34qg6E6dQYoMPPhPAju4vahWm6VHVrQxsimtFNnC0BYtssjCrTv71eejFhfuGx5jLGk8ZGkrPUhghljLHXknGt15vgZ9g0zAcg+DE02JNA+C1pNOABoVWaDASqCgDKWglAGA6lvlkzcCkBuCkRa0Ba2CX3cFhmE0B8qeTuZbYXqh34r/Tvoo1B9/BbrC66HypSfUte4LN7n0CTC61Ydq3UmHqGQOlI4kXW157WQDSkjwqnj86DT+sHzMhh0sz7q+9mz0330PwZKAKM7SyYWL3ukFZtNOWjlAiwHVCpA+23p31rnMuRxIdOTq74d5MBfMR+hniwLvYI4ZT1+zv0kSZVfS/mQ5CHToPHwdkee5uW6Q8dandCn8RHGcewyGziAbqmGWcOhttP63eEyGHRkQz7FgBMYC0CK95qoHgcb1Rt4XQEvE+J1hURgQafPwCK7LqkA1dgSel2hf6Y/cufi85ck13+Njt65Cthf+reezMa/2+W3u/s/w8nXbWJZqsaHiBkiAP4OWfcFz36dHguJj2dxrKTGbarIBg6kXSrNtjieEqa62s9/QseklWUw6MlGBm5qRvJ12eIlCEqWnogChAV/wk7Zjt/epMiG5Ei7pSw6D/WF3lhPvfgIOaGMIWY32vCSt4/1BYTB2/FjCmruE/jP959lkLxNvL6u35AlsymtzqkkGzieHsajp3/t3+/mLRDDfxJEoQDldem4+BYte+OaAkN+EkG24+ehoOeBEgtQLsPbQh/vPjvqm7nps5cpW4io5CcdKMh8H+gZF/aCJtdXN9mQHf67wOJTF8VnOxOETXZV+ZDbjuNi7AJvml/Q50I7e+lnfAJkzcdtqskGTrSyegHZfGQ+mnYM1LZAPO2Osv4ZGRgGhsOAkc3icA40AJr/DAM6DBjZGNlE3/OxINIFkflJ5ycjGyMbIxvDQCMYMLIxoDUCNJv9dbP/NPvJyMbIxsjGMNAIBoxsDGiNAG2aZ2zrmy5rM7IxsjGyMQw0ggEjGwNaI0Cz2V83+0+zn4xsjGyMbAwDjWDAyMaA1gjQpnnGtr7psjYjGyMbIxvDQCMYMLIxoDUCNJv9dbP/NPvJyMbIxsjGMNAIBoJks7J2x9EF+zMfGAYMA3VhgHjljdkl/3cNB1Z2HWJ+MD8YBkaDASObHusawEYDMPOr+RUYMLIxsinSXIDCSiOIUWDAyMbIxsjGMNAIBoxsDGiNAG0UM6XJnKwM7P97PYSZ8CalWAAAAABJRU5ErkJggg==;" parent="1" vertex="1">
          <mxGeometry x="-1723" y="-383" width="283" height="62" as="geometry" />
        </mxCell>
        <mxCell id="UeKgmQtvJm2V4L9KuCcI-64" style="edgeStyle=orthogonalEdgeStyle;rounded=0;orthogonalLoop=1;jettySize=auto;html=1;exitX=0;exitY=0.5;exitDx=0;exitDy=0;entryX=1;entryY=0.75;entryDx=0;entryDy=0;" parent="1" source="UeKgmQtvJm2V4L9KuCcI-25" target="UeKgmQtvJm2V4L9KuCcI-39" edge="1">
          <mxGeometry relative="1" as="geometry">
            <Array as="points">
              <mxPoint x="-820" y="453" />
              <mxPoint x="-820" y="335" />
            </Array>
          </mxGeometry>
        </mxCell>
        <mxCell id="UeKgmQtvJm2V4L9KuCcI-25" value="" style="shape=image;verticalLabelPosition=bottom;labelBackgroundColor=default;verticalAlign=top;aspect=fixed;imageAspect=0;image=data:image/png,iVBORw0KGgoAAAANSUhEUgAAAX8AAAA+CAYAAADDNxsaAAAQ0UlEQVR4Ae1d63IVxxHmcVwGy1xkJKUEAjsGYyzHAsdOAqlUxVEpF5MSP+IQQIArIeVKJSZUFCchkAeg9BDkp96DPMekelbfbJ8+c+nZs8ccne0fp+bs7kxPX775pnd3dvfIa8cWnf3MB4YBw4BhYFgYOGIBH1bALd4Wb8OAYYAw4Ml/9dwlZz/zgWHAMGAYGA4GAvmvnLngTn/nHfuZDwwDhgHDwJxjgPg+kD8R/5unztjPfGAYMAwYBuYcA2+tvGPkbxOeTfiGAcPA0DBg5D/ns/vQAG32GokbBnQYMPI38rfTe8OAYWCAGDDyH2DQLTPSZUbmJ/PTPGPAyN/I37I+w4BhYIAYMPIfYNDnOZsx2yxbNwzoMGDkb+RvWZ9hwDAwQAwY+Q8w6JYZ6TIj85P5aZ4xYORv5G9Zn2HAMDBADBj5DzDo85zNmG2WrRsGdBgw8jfyt6zPMGAYGCAGpkL+x9/+yC1e+7U7/flDt/TFY7d874n/0X/aR8eojs3Quhna/GR+MgwYBvrGQK/kf2r9x27pN391K1/+R/WjutSmb6NMng0Uw4BhwDCQx0Av5H/8zCW3tP0nFeHHJgZqSzIsWPlgmX/MP4YBw0BfGJiY/E9c+L5bvvNNZ+LHZEAySFZfhpkcGySGAcOAYSCNgYnIn8h65f7TiYkfEwDJsgkgHSwDsvnGMGAY6AsDncmfLtP0kfEH4j+4T0Ay7RKQAbwvgB8GOQsnLrpHz++4//33rtvfuWhnvwNceZPD6cbOTY+Nl8+vu40Tq73hozP5T3KNXxK+3CbZOWfIY6tX19wHd8+5K38+767+5bz74N45t/ajs1UypMy+thfWr7v9F83ApsG9t6kP3sLmVhP0F1tuu8egd7UNINzf3ZgJ35IdXXy0cGLD7R3EpCYeXf1Wajcv5C+xTnjnv5fPb7r93etue10/Bkq+m+bxjc3rbm/3pts/mJhhi7fj+ZZ7tHmxVzJO2YJxNxPkTyt0JGH3va1dBbT68Vl39evz0d/a9bVXTlJyQLysIPIuxJYCUGn/xvqGe0RAT2SenDBfvrjpHs3IAO7iI27LUMi/FN8SPjTHJdZBlrGSEog+s1iNfto6G5tbIwlbTH/si42Xvn09U+SvWc65/OCpW9y66xY+vOaOnr/sXj/zrjv67kduYeMn7tSvHriVB8+yEwj1oQnW5TsN8a9dW3PHF8/6H/2nCeHD359XydD007VObEDEABOT34XYYnJK+7SZJ0BomX+/l+W0/i/FMXV82vLRL7CeSg6IFPeeN5cwiDxfztAZJNlAftrebc/SKcPf29lwGyLRWVi/6OisIJYsTcPXGHevPPOnh7NKWf7SnW/cG5d/4AmfSD/2e/PqT4tyNA+CffRVQ/4nVtoBefx0czZw5evZIX8aEHQK6UGvzJxnjfwxyGep7OKjoWX+0yCkGAZK5I82nGBn4cyL9OI+8mN1s9u9Fy5Hm+TBL6lyZsifns7Nkf/Sg6fujcufesJ/49LHPstfur3r2yzd/rtb/OV91+z/MiuH+qC+Ug7BfrrGT1k+tlHiUhC2X1U5OiDaa82aWbwLsXWxcxqA7aJHlzZdfGTk3yZKXXyeajOK9fR1fe7/Wcn+QbCUnE0yIU1jLEE3DWekYhPbX33D9/SNP2ZJ++Tm7zzxH3v/U7d8/0m8buGSDyYX6iumNN9H2f3hIf/VcIOSQFbKDLoQG/eN9v80AKvte9J6XXzEyWeSgT6p7mg/bf9PW36w42BxQ+qyT6jHVjf1TWjoo6bEpKUZkyW50/D1zJB/6Xo/Lvcs3ngYJ37lqx9oAtBc978iMn9k/NqyFMxJjwNYGBAcHKWbvzXEtoAbtmJlwv7BqoSYHQAVgT714+SI0/VStkbXRLd3tsZWSZAu2+vp02m/uoJdE/aDsdCmxkfwQYn84RcQE8XM3wRkvqV41qxcSdu2OnLJIZUQ+Ph6n94cuxnZ+HU804YdqdjSfh5f+IfKtL7p+Emsc3nyf8CSWL4o4+nHy8HlUo+H1IKEDviHTkGXisUYaIuy1tc1dkI28Ig+Jy2rM//lnX9lSf3oufd95p/M+ivIn/oqGQiSRz1sa0u0m1YZGxDYR2DOEakESExHGhzbbHCkBvpLIlGxXBSgSrWh/ZwcwiDJ3KjbIIJiS1ul7NiEp7EhSYodlsPWkX+7Bl/aQtvN9eFx4kWsPHmxSSMmY2+z7SNmJ9c31h77ZNva+JLOE8WiS+YvsDSKebpB3N6AJTuljRp9qV0M/4297aVYKRsx1JS1vq6xE7IPEfnnJwlc2smVGvKXgdGSPurJ9n1vg+iR+UM+AkrA5ASL41SOAiROMCBkPzBo+RxbmRAy8AMyTg+APPlAJ/SVmrC4TTLLp0HaZJPjk1CQSzfFaXXFwSQlB3bMTxofQX+UnExjMmEHDbZHu3cagmd6kRyyBZOcjG3bT+tXP0lEZJTIjWR5fekMzq88Gc286YwAMjR6lAhuolhoyZ89+yL14fHc876ns8U49sk30Lcr/tv++lm+TJjVPLDX9rvlSnZyPGJsAGOTlNWZv/ayz1s3/pA9Q8iRPo5pLvtI40Hq2lK273s7Rf4cJLFsmPTgAJFZOz/eTCCjpMDtgA5+gEROm7kucjByORhoMfKHrqk+uBz+n7eLETHVDeCPnJajfcqHvC/815I/2ZIiVJLF5ZR8krKN+77Wd8GeDJk2etYREumR0jcbCwX5c3tjMUM8S773dh2c9TX6dsN/zh74t6bk9uXGUo2dQUdxiaxGr1jdavIv3vD97Faz0ufiVbe888/oBLB0+29u+e4/osdA/FRqbvhKo7Skj3qyfd/bIN4YieBYatADINFBwjKMGPFIOwKAYgTKZOUAmyJ/DniNLtBN246TrCSlnI/Qjyxz8qgufJWKC5fX9j+aOWptI1klHPD+Uv9TsfHyFfHV6pvzHeyIYl3cN6E6MpZeV0boOSxq9YW/EFM5llL70a625Hpl9VfaSf0HHV81+ZeWei5/+cwdu/SJnwCOfvd77tTPd5xf6vngmVv67WN38me33LG31/1zAMv3/52dADRLPWVwQOraUrbvezs3IEYCG1n73xLL+KWSklxpB+o3WdLoabQWsCmCgezYoJd68O2aduhbDqicj3hf/H+OwKheGGyRiZLLof8pWTW2af0v++bb8E9s8tXIr9EXfY3Fgp2BEM5SvxxO2niOTqbcVu93xVkGbwP7JP5rYs3lpf5rfO31D/eq8nZS3aDjqyZ/1UNet3cdLfWMPdyFfcd/+IviU76ah7xkELSkj3qyfd/bAF0K8Jw85A2ddiBEyD+AZ/xYzIYcKHPHuCwMekkwOT15e/k/tFOAus++uc9j2WfNYEv5LtimmkB0l2XIf9QfPSm77d87s+WfmMW9ByI2GRu0KV2HDvpOEosC+e/TE7OF9+EEPQp+09YD5lJxCrEu9Ac5pTLVj2xXo3/QUREb2U9uu/qyDwkrXfenSzZ0BnDys1vNk77nLrnX195zRy9eccc/2XJv3fwqm/FT+y7X+0k3kLq2zDmnj2Ml8qc+AAQavDybwn55qkptagGRA2XuGPdBioBrdYFMtEtliLH9ktxyPkI/svw2yB+2yQld6kLbGv83N8tHV75o/KOWf/DmyJjM1L6xWFRm41FfKJOaGv/mfNDip5yBx/SV+zSx9Poo7aS6tbZKnVLbnch/ll7sJg3Tkj7qyfZ9b2vIn/oMxMoykBaY49l9LSByoMwd4/4IOorlebW6QCbapcgltn+McCoGEfo9bOTP/URnkPu7zcqf7U1a3dW8WTIVG7JZE1/eR8zvsX1jsTiM5M/OVmJngcCMttT42sekAreIjSaR0OpJ9TqRPzWcpVc6c4NB6tqSt53Gfy35c0LCoFKRP5sscvpzUEqQ82P8zEPKSxFMV3B2bcf1an2kz9zg69SluBq9IIvIkfu1Tkb6sg/wQ/K7xIZ8pYlvjb7c//w/dE35lddN/W/jOZ7w8DZB3wnxz+PXB7lqfE12aO2kusHWWbjsQwrZx1x070epGRAABIgE27HLPjVyPdgyWZkWsCnyb/XUE3DtAKD6sR8fvJx8Y3Wxr9U3TjBhsCmIJRWHto+yT7gNkuCDLoWBn4oN2ayJb6tv3CfwXa5M+SLXRh7T6lHbV64+fIxxJ3Wq2db4muRp7aS60K+PyYnb0jnzJyH2Gcc4IXEH50DH6+F/GMREPIGwxwckJwycKUBGrMwBSAvYoJu47MN1keQV0wX7eDstcaMtSq67dnCk7IBM+EpDBkGWIGfEvZSxU5+8P+k/HMvZxv0YwwL3kZQPm7mMzrEIeC1PeOhXllpS5PrGbJZyc34ckaWY8KVsvq3xNdXX2kl1c7rzvmv/T0T+1BlNAH18znFeP+AOEtCeCqO+J43d5lUJscyfg6IhKd1DLrGBzQGbG0iB6AT5j+syupQ0B8og0092+nZcJgaSimjDtdY0QWGwkbyU76l/3m/Mr61t6b54vGP6Q5eUHhQ79OP1jcSmOr4dYwFbtFjnMcR/+DRlL+pRCd+Q3bSKiB/j/6FXUy+OMfTrfdjRfupT62v0V2NnLgHg9mr/T0z+1BFdAprkHgC1ndfv9gJ4NQOCgzqAUbyXRwKN6vmvI7FH4T0xsHft5IgdfXo9EwMJJBOTw0Gf0iX2eofRrGt8KSDJ9V9GIjsixAagQzffd+RlcPi6Eh33dSJPOkNW8AV9dvBF83oH+mQfjo/5VWT9oR67mUh+5cscvV0HX4yi127gFQ0yMwd+SGf/eg4e34NXO3jZ+FZEwkfBJnqehNkCXamcNBbQtQbrvH+vQ5icx892x+qyh9d8TOXrTWhiVOIfffNls82L+8Y/1ehvsic+5kJyVL6usDPIS+BM+kW73Qv5ozNaBaRZBoqneKmu9nON6OOwlV0GhCTSXHbg6ype7Fb6bB70BDmi5BktCDZG/hQXqTdk8DJmC38/Da8r/6f6DX0r/EAyJcFKTI0MtsIn/UrZGGV4nFDGbPIv3Evf8CXdoI9sS9vNpLIa6qR8pImv9yN7V1CsP+yL9YM+vi3yr4l7Cf/AgBaL8EMMS/AD6qDkY2luMn84DiU9nEVP557+/KFb+uKxW773xP/oP+2jY10e4IL8w1QCCLUDAu0IODHClD5AZsuJhvqsee1wDPgcsCXyh05Nhj/66uHSx7tp4oi9BtrbgJeaRc5+0CfK4AfxNsjUJ/nQjpcgWxA7+YU+2YdBTGXuVdlcFv33L9ij7yOzt50GfU7oXukMn47owD6GHnROZP6NHu1L4CCHxxd6d40FMFuLdfTrdazIiHm7EHfu40r8R+UJHDWxp6/yXU+eQXk7IpMo9/Xckj93ov0v3xQ2H82WjwKR9nyabXGerTgPPR69XvYZujPN/vkY3Eb+8xFHG4/5OBr5J9aPG3DywJln/xj5Dzf284xraZuRv5F/WMUiwTHUbSN/I/8hYN/I38jfyF9gwMjfyN/IXwyKITjEbLSBb+RvGBgCD1jmbxOcZf4CA0b+Rv5G/mJQDMEhZqMNfMOAYWAIGLDM3yY4y/wNA4aBAWLAyH+AQR9CVmM2WvZuGMhjwMjfyN+yPsOAYWCAGDDyH2DQLSPKZ0TmH/PPEDBg5G/kb1mfYcAwMEAMGPkPMOhDyGrMRsveDQN5DBj5G/lb1mcYMAwMEAMj5L9y5oKjHfYzHxgGDAOGgfnGAPH9kdeOLTr7mQ8MA4YBw8CwMGDkb5OfTf6GAcPAADHwf6Pinxqhqw1eAAAAAElFTkSuQmCC;" parent="1" vertex="1">
          <mxGeometry x="-720" y="422" width="383" height="62" as="geometry" />
        </mxCell>
        <mxCell id="UeKgmQtvJm2V4L9KuCcI-42" style="edgeStyle=orthogonalEdgeStyle;rounded=0;orthogonalLoop=1;jettySize=auto;html=1;exitX=0.5;exitY=1;exitDx=0;exitDy=0;entryX=0.5;entryY=0;entryDx=0;entryDy=0;startArrow=none;startFill=0;" parent="1" source="UeKgmQtvJm2V4L9KuCcI-26" target="UeKgmQtvJm2V4L9KuCcI-39" edge="1">
          <mxGeometry relative="1" as="geometry" />
        </mxCell>
        <mxCell id="UeKgmQtvJm2V4L9KuCcI-26" value="" style="shape=image;verticalLabelPosition=bottom;labelBackgroundColor=default;verticalAlign=top;aspect=fixed;imageAspect=0;image=data:image/png,iVBORw0KGgoAAAANSUhEUgAAAXgAAABBCAYAAADbn793AAAQk0lEQVR4Ae1dbXMcRxHOz0nFjmLHsiVRdmQnxIrjKPjskAA2RRVBJV5iSvpAMLbll4JQKQpiUogAJuEHuPQjwkf9D/M7hupZPbN9rZ7Z3r09+bTXH65md3amp6f76Wf65nb3Xnr55GLwj9vAMeAYcAwMDwMvuVOH51T3qfvUMeAYIAyMEfz5i1eCf9wGjgHHgGNgGBg4RPArFy6Hc995yz9uA8eAY8AxcMwxcIjgidxfO3PBP24Dx4BjwDFwzDHgBH/MHeiLsScjjgHHQA4DTvBO8J6lOQYcAwPFgBP8QB2bW9G93rM9x8D8YMAJ3gneszfHgGNgoBhwgh+oYz1Lm58szX3tvs5hwAneCd6zN8eAY2CgGHCCH6hjcyu613u25xiYHww4wTvBe/bmGHAMDBQDTvADdaxnafOTpbmv3dc5DDjBO8F79uYYcAwMFANO8AN1bG5F93rP9hwD84OBqRH8qTevhcWbvw7nPvksLH36ZVh+8DR+6Jjq6Bq1cbDND9jc1+5rx8DRYqB3gj+z/uOw9Ju/hpXH/zF9qC31cccfrePd3m5vx8DwMdAbwZ+6cCUsbf3JROoa+VNfkuGgGz7o3MfuY8fA0WCgF4I/ffn7YfneV53JHYRPMkiWO/9onO92djs7BoaNgYkJngh55eHXE5M7SJ5kOckPG3ROKu5fx8DRYGAigqctlT4y90TuB/v2JNO3a44GAB5o82nnhdNr4cmze+F//70f9nfW/FvzC7qbbrSzHX3w/NmtMDp9vnc/TETwk+y5S1KX5yS7Dfmcv7Ea3rt/MVz/86Vw4y+XwnsPLobVH73RSkab8dq0XVi/Ffa/rYKJAmpvw+7IhY3NCgDfboatKQCgzTyoLQC5vzuaCduW9B9t3ApPdrfD/gGRke3x2X+2HfZ2b4UnG7NJbvB7W7yU7MGvzQrBvyg8ETb2FGw8f0Z42Yy4mAbhch/QMeY/cwRPd75IUu773Hp3zfkP3gg3vrikflZvrb5wIpIE/7wFWSPQ2/SRILKej9ZHFSFmMrqF06Owd7BQPf92OzxZty9UVh36aDfa2BxbUEHqubLNgttGvyZ75mRx8iWdn09hMeVjvKgM/kXgqQ02NLt09WnO1zNL8JZbIZcffR0WN++HhfdvhhOXroZXLrwdTrx9LSyMfhLO/OpRWHn0TXGRoDFyhuH1V+9V5L56czWcWnwjfuiYSP/9318yyeDy+j6WBE9Bq4FHG/eoCN4a8ADkLGbwNIet3eorbyRGytI31sJILETUbrS+FrYoi4tt+l+orPZUfS6+8U1jMZ1EP03nrnVHhacKG/W3aMrU93ZGh7GxvhbSNz+R6EzDZpj/TGXw9IBSU7a+dO+r8OrVH0RSJ2LXPq/d+GmjHMvDUNc+rwj+9Eq9n3rqXJXVX/9idgieApW+FkbyMWbAs0bwXQP5KPpt7dYBbF1Ap6XXJGRQB/12+ibS93wm0W9aNpuWXD7XGIMdt+W4nL78Uft6hvbg6SnUEsEvPfo6vHr1o0jqr175IGbrS3d3Y5+lu38Pi798GKr6x0U5NAaN1eR42nOnbF22w7aNrD/qc2TwVSbGtjkMP6w4wdeLdslvCBRaPKe15VIaX17rSgbj/UYBi1bfGd74OLP5O4S0adfzvrAxDZtBt779C1t1+pH13O0/Fon59Y3fRXI/+e5HYfnhU71tw/YMFhAaC8rmSsrSjw/Bnw8gbctWDdpOew9+GuDN+avveiygFnv2PXZOXld71v6ufuPAed8LV1f9cvOd1fo+sTENm80kwTftv2NrZvH2Zzq5G19jQCRv2Ye/LjJ4ZO7WctrgBMiwl8qB0kTcCPCmdjSHBfxIKu4awV0B2jwBMCKQ3IdnxCmjbPjhb4H2uHc2D93BQrpsreczxnh3w7N6Hz2SdkOfpJPhG5Fmg6a6Njq1taccW85l7IfIBptLWXm9zweOQW27AfNAZglsASOEZfodht9pQjKjz9kdY3Gvu7AlkuarzC3pcHAtyqc7X8bkV3e8yLnjPMlvcWMD+qKEHpi7VvIYkTEbbc1+G+L2hmzYGWP2VXbK4Jd3/lUk7hMX340ZfDZ7b0HwNFbTZEHkaIdza4l+0yolwdM4qCOwlO6SkGDRdATwNeDxuudElOJWSwCMt5PHHLwpYJSAhG4jInYWhFKetlhZ5sADA2NxAtSuo12XsotObe3J9crNJdncSFKRUMQiL31APz6X7oPHPCLxiB99uSwQU9S9MGbON2luCp6SDrujsXjh4+NYk5+zJ7e55Rh6YCyt5DEyHrOjsCfswnWFbNjRok+bNlMm+PJCgG2YUmkheDlhK7Gjnezf9znIHBk85MO5BBgOEFynchws+t0eCBKSE7MqdtdIyqRxe6NC8nEc44MvGCu3KPE5yWydiKfKKg8vNEku/RBNdzccLESSZKWdavv0f9tmV53a2JP7GraTOAF+SjiBHE7uJIfbktpU9q9/jI6YEXeLxHbpAZwqYyYC2jrAlfTJ/s6ILRbMd+s1uck5Qd9k4yLBb8bbc2OCwr79jdbpLqhqLpr8vrHBbctJGnNBWY+7GfZ274WY0LCYRDsqk8+n9O2zE8Fbt2jO3v5DMdMvETuuWbZouMHoGMRtLWX/vs8RoBKEHDBaVkt6cLDI7Jtfr4I/v/UBHXIBzXUpgbcUkNA1N0bOrryfJHD0SYEgsthcPfp1LSfRica02hP68fZy8Ry71kAEFr25vJyvYFe6nssugQVqk5PTlEVDhpwz2cWiQwnX6J+LLdjeWnK7lWKE+0DGvBwr6djgV9nPet6J4Bt/ZP34TnUHzdqNsLzzT5Xkl+7+LSzf/4d6DeROpeVHVjlZK7Gjnezf9zlAqDkb17IBUniSlQNOCxA5jwQmQZLUjssqgTcXkLy/RRfoZu3HiYIvAqU5YYy25aQ6tbEndOM44PPD9Xqe+W8qVr2jfmzbRfO3aTwmI7cI0Fg5zDRdgw4UG5pNYJskX5Ak+r9IgtdsC72pTDoK3XmbSY47EXzTbZLLj78JJ698GEn+xHe/F878fCfE2yQffROWfvtleP1nd8LJN9fjffLLD/9dJHnLbZLSACBuayn7932O4NUInsZKTlbujUc2oIG0Sa6cB9prAcPJoQTKFEziKzVk5+YodcF5m34Ym+tX2+7wtg/GoBJ2pLnLjySnSXWK4xm3vKAj5qb5OcpjZMrnj/68jcUHTf622JUvujmdSK8kSyGxNG+Bp6Z+fN45+aleSWh4f+txk80gB1iz+CHpqNgG8iYpOxG86UGnu7uBbpPUHnBC3akf/qLxaVbLg07SAFZiRzvZv+/zJsLggXKIbEoZfOGaNocSQEvXuKxcQNagLhMtl0XHqZ8B4NrYKUAaghjjSHKn86zNO+oU59WC4Mf8rxCdlJddBFrgocnfya4FG3C9Sxl2SZbmU2Ck1A9tom0y8079G7DBZZWOm2yGvsBazk9oR2XSsWBn3r7tcSeCp0Ga9uFpe4Uy+dc/vlM90XrxSnhl9Z1wYu16OPXhZji7/Xkxc6f+XfbfSTcQt7Vsa7S27ZsInuQBFEQ4PBtCvQaWtuAoAbR0jc83F5BtdYFM9NOIN1fHt4Bq++S3LjCWLDG2JHjU58bX6rlONI7VnrHtAUGRXAtR5tpBbzkfOW+LfhZZR0bwmUUP86oxMJ5c1PXtsQHZvLT6tB53XB8uC8cWO6Ntl7Izwc/Sy8bkxK3Ejnayf9/nFoKnMRN5soyjBJa24CgBtHSN2yPpKIKurS6QiX4aaebqOJnCtjnSwzhaibElIaI+N75Wz3Wisaz2pLawqSY3VyfHIznQW85Hm3uTfhZZM0/wbFurtHBq9tHqmmyGPqWYRRuUFjujbZeyM8HTYLP0umA+eRC3teR9p3EMEmrak+MBgwAugSWBgy0IJf05QCXg+TX+DULKAxlBP1xPurT8qtm1H8blekud0CZX5sbO1efkaPVcr5I9gY0ckefqNSy10btJP4ssjleJJ26Tkqwcnqh/6ieSCS6bjnMxwvWzLHpSrjxvshna5/TBdV6mObaMGy6jdDwRwfsfftjek4Ig1oJSOgfgoMCmoMG5tkXTRi6NU2pvBW8uIGs9230drvs1f52VtsI5ggQ2Q31TiX4y+PvQyWrPpIN1kWZZqVw4ar2bfcDJT8ohuyW9CsTDZcwiwfN5tMWGhh2rT2s/NGPaYmdNF2vdRARPg/hf9jWTfIlYNUclEqWgPwholeD5+9kbshwapwQmK3iTbmI8HuwaYWjzpDrer0QSuf5ShmanXN+cPfrRqfykaKV33cb67YP76dDCVCB/aQPMnYhP8xeuyzG4HKudSrJyeKJxUj+BNa4DHZcIlevYBhtyjDiO8Yfzkj5SbppjYSGVfdqcT0zwNBiRfB9/3TfUP91uS/BoH4Nvt3rsPwdOAKTKUGwPOmlEOkYchYCyBGTbbCnJjAua/rRuE6i5zaonHpvlwHYaiU2qk8WeIIK29ir1q/XOZ/HcVhFjxSdZ86+x5eSpYQo+M9lZwVzqp1yDbCphj1yM4DrNNbbJPFXKZWrHFp9a9OGy0xxnmeBJYdqumWRPnvoO9X9YEVCWLRo4H44nUCZgivfIRDCxrCIGK70AigGYQMlfAFXKFDFm1DPzgqhEIErQ8QDI6aK9qoATBY0d/6SDzZXkxn/SoXfcKOPCZhTI/B04+7v0eP1aeu0B2qV/5UmvbzhMYn3o1GTPZEvj9gz0H9NN2ANYqzAzbstoxwMb0SKIx/yHnMEnm5mxkf/DD5LV5FNqgwUlt+BApzF5s07wUJrurrHcQomnVamt9a/5MMZxKxF0bQhekmUJLLEte1sdBbf2kW//k3aEnrIvz84SKQligSypt5RF59pc6G2FIBytD+pKCxTpYJWT5B386xP056VVVk6nkj05SWsEy/XQjpMflMVBLnSYK8rqpXP19pA2fiKyAvHwOXCMSH1LstI8FDylfso1PoaVUK3+hJ00u5R8Cp2s+lD7NMeCnSG3S9nLFo02MD2gRE+hnvvks7D06Zdh+cHT+KFjqqNrXR5i0saa9TqAog3B05zQjwCnkaKct8xMq370Wtf6RVGyjzzXgoAHbykguSy8qpZn1PEPjQu60OKgvWKY7BZfecxeQsbH0o5pHk9oe0u8ya+SRS/hstlkUp1y9kyBrTy9rM1H1nFs6ERU/X2htD9ePsYXYq1/0q9APMeN4GHDFCcCGxQvlj9jz/kU8ueC4DFZL5t/hHUbuY0cA46BaWBgahn8NJR1mR4EjgHHgGPAjgEn+DN2Yzmw3FaOAcfAccKAE7wTfOM/Zh0nQLuuTsCOgRoDTvBO8E7wjgHHwEAx4AQ/UMd6FlNnMW4Lt8W8YsAJ3gneszfHgGNgoBhwgh+oY+c1Y/F5e7buGKgx4ATvBO/Zm2PAMTBQDDjBD9SxnsXUWYzbwm0xrxhwgneC9+zNMeAYGCgGnOAH6th5zVh83p6tOwZqDDjBO8F79uYYcAwMFANO8AN1rGcxdRbjtnBbzCsGnOCd4D17cww4BgaKgUMEv3Lhcji78pZ/3AaOAceAY+CYY2CM4F8+uRj84zZwDDgGHAPDwIATvC9qvqg7BhwDA8WAE/xAHesZ2DAyMPej+3ESDDjBO8F79uYYcAwMFANO8AN17CSrvvf1rNExMAwM/B88UjLZLBXwWAAAAABJRU5ErkJggg==;" parent="1" vertex="1">
          <mxGeometry x="-1264" y="33" width="376" height="65" as="geometry" />
        </mxCell>
        <mxCell id="UeKgmQtvJm2V4L9KuCcI-46" style="edgeStyle=orthogonalEdgeStyle;rounded=0;orthogonalLoop=1;jettySize=auto;html=1;exitX=1;exitY=0.5;exitDx=0;exitDy=0;entryX=0.5;entryY=0;entryDx=0;entryDy=0;" parent="1" source="UeKgmQtvJm2V4L9KuCcI-27" target="UeKgmQtvJm2V4L9KuCcI-36" edge="1">
          <mxGeometry relative="1" as="geometry" />
        </mxCell>
        <mxCell id="UeKgmQtvJm2V4L9KuCcI-27" value="" style="shape=image;verticalLabelPosition=bottom;labelBackgroundColor=default;verticalAlign=top;aspect=fixed;imageAspect=0;image=data:image/png,iVBORw0KGgoAAAANSUhEUgAAAU8AAAA6CAYAAAAwVds0AAAO2ElEQVR4Ae1d63JcRxHO46RiW5Fs2ZJSkmUnxIrjKPFaIQEsiiqCSlxiSvpBMLblS4GpFAURLkQAY/MALj2E+an3EM8xVM/Rd05v78ycntmzkbTbP7bmXGa6e7q//k6f677x5tlZt3jlultYuuYuvfOe/cwHhgHDgGFAgYE3QJ5EnG9fWLKf+cAwYBgwDCgwYOSpcJIdVOygahgwDEgMGHkaeVqVYRgwDBRgwMizwGnyCGTrVpUYBiYPA0aeRp5WdRgGDAMFGDDyLHCaVRmTV2VYzC3mEgNGnkaeVnUYBgwDBRgw8ixwmjwC2bpVJYaBycOAkaeRp1UdhgHDQAEGjDwLnGZVxuRVGRZzi7nEgJGnkadVHYYBw0ABBow8C5wmj0C2blWJYWDyMNA5eU6/e9PN3v61u/TlUzf31TM3//C5/9EybaN91MfANnlgs5hbzMcJA52R54XVH7u53/zVLTz5j+pHfWnMODnT5mLkYBiYHAwMTZ7TS9fd3NafVIQZIlYaSzIMdJMDOou1xXocMDAUec5c+76bv/9tMXGCTEkGyRoHh9ocjBgMA5OBgWLyJLJbePRiaOIEgZIsI9DJAJ2Ri8V5HDBQRJ50mt1FxVkT59F1UpJpp/CWWOOQWNo5TM2suN1X993//vvAHeys2NnXiJ5+6e1sex8fvlp3vZnFTvxcRJ7DXOOUhCnXSbYWeNRvcW3ZffTgirv156tu7S9X3UcPr7jlH13OkpGjL6fv1Oq6O3hdJQYlx/6GPmhTG5tVsF9vuq2Ogp1ju+wL8B3s9U6Eb8m+Eh9NzfTc/lFMcuIh/dHV+riTZ29j3e3vbbuDowME5QH9Dl/Rtk23u7HSGZmlYgL8Hit50h1ySXhdr2vvwi9+etmtfXM1+FteXz72JJfkeZhBhCXEkAJPal9vted2CeCRyocTzuHrbbe7qj8IpPQOu6/ER3wuk0KebfEdNg6h8b2Nzb7CAaQZakO469rmE0GemseR5h+/cLObD9zUx7fdmas33FtL77sz7990U72fuAu/euwWHr9MEjDpCAVEbrtxvyLO5dvLbnr2sv/RMhHqx7+/qpIhZXa5LsmTgBMCSkhnCTGE5LRt01Y+AJ9Vnt1eVtH6vy2Osf2jli/1kr6tveZsiyrM/Z2e64kD7tTqiqOqNHTQHoXNwO+xVZ70cHtblTl3/1t37sYPPGESaYZ+b6/9tFWO5kH6m19X5Dmz0AB6+lJVjd765uSQJ1VrdOriT1eUldtJI0+ZJCdhvcRHk1Z5joKIYrHnujzmN8qu4XI52mIjZhO2Hzt50ttBKfKce/zCnbvxuSfMc9c/9VXm3L09P2bu3t/d7C8fuWr7k6Qc0kG6MPFYS9c4qcqU+3EqL7d/1+uoPKtT3eZam+boV0IMJfMbBVBL7CgZU+IjI8+m0CjxeWoMCIqKhGEuiYwCk7BNk3upOfJ9WTeMLt35Y5L0zm/8zhPn2Q8/d/OPnof7tpyyg5xJFzc0tEzV5ekhz8X6Bofm9L2EGEI+ats2CqC26exqf4mPjDxHQ54oFDTYbov/KDB57OTZdr0Tp+uzd56GiVP56iYRqOa65y1ReaLi1LZtQRx2PwCFmywcFG03j3KIYQo3fMQdTdzNDM0DYCKwx368esB1rMOWu+10LWtrZ3Pg7irZsrUaP43zd2VfVZc2YE/bmBwfwQdt5Am/oEKhmPmbH8y3FM+DvXW3Ja7jQYds43NbdBwTsVNUH1/v0+2BmzCVjwZv4GEe8GWo5fHlNsftjcevxkfGTVGuk5ZzbZbx9748ujxG8+X+hGzEVeouWc+qPOd3/pUkxTNXPvSVZ7TqzCBP0tU2IZAk+mFd22LcqFpJnqQH2yi4KSKSwAjZSGDZYmAJJYjXQ8QlHncCmGJjaDtPrjo5EuTZowRnj2ZJ2aEDhmYOPAm4HzQ+4v29/1seVYJfqiRrnsGUc6H16rreIHFBJyfG0Hjatr/R6AjNk5N9TAZtl2Mxj9QYHt/KN+14knqkT0P74Y+2Ntfm/vj33D47wEmfQPYpIM80yeLUPNVqyFMGQ0ua6CfHd70OokTlCfkIJAVYAhh9+oERTlAQmgfKXv8dzboCPCKzwwCBki6e4CngQ1eM8PmcZMVIOqpqZpDEa7l0U43uyh6RvCTVkJ80PoI/0XIyCsnEPCjJdvfuVwTJ7CI5NBccJGRsGz0NKXqSDchIJXsjh0hh0+36O9b9lR9VpJChsSMVX9JXGosmDt08xqbFZKN30+37WNHZTThXeFyBMfi4tM2qPLWn7Rfv/CFZoaZIE/s0p+1y0iBFbSvHd70eI08OjlA1RnZwYMiqke+vCLg/qfg8YIM8EqMPtyWVXHViBSpP2BrTAV2y5eNCREb9a9AHTgcxPuZDqY/WteRJc4kRkpQTOqDAtio+4YTmvs/1HebWVXw19sZiEdsOG3Nb7pcUJrnNqViR/trG43rDqPWG0Rd3qzvtK2tufuefQQKdu/c3N//gH8F9IE5qNTeMZFC0pIl+cnzX6wB2KLDYF0saACNEDBxcocSV86iBEyIg5euBMfLMtQW2acelyC7lI+iRbUoe9YWvYnHh8hr9/RWXdm4kqw0HXF9sORYbL18RX629Md/BZyGsxmxObef2aMkz1Y901TYeF3m2Pao0/+SlO3v9M0+gZ773ibvw8x3nH1V6/NLN/faZO/+zu+7su6v+OdD5R/9OEqjmUSUZAJCitpXju15HYoTIsy+ggWc/m8QcPNVtkyvngf6hKkgL1FiCQnZsjtIWrOeMg26ZICkfQY9sYwSAfnWSBQ406IM2Jitnblr/Q2eohX9CB1KN/Bx7oYvHIsdnIfvlNo3NNKaJf//BS8qj9drG4yJP1UPy9/YcPaoUejge26Z/+IvWt4w0D8lLJ2lJE/3k+K7X20DJk09eyG6AESDPzPfeU2BM7eP+QNLIBE3ZycfL5XqcAsxd6uY+D10qyEmymO/quakIuLk2yglJ+ovWSR+9trjl3xffdPv0fji7QSdjgzFtHx6p7S2MRe0zxXxD85LbYn4d6JeRB7WNijlKPbH1rGueJKTtuiedclMFev6Lu9WbRleuu7eWP3BnVm656c823cXtr5MVJ40vud5JtoEUtW3MKV1tbyNP0gPgytNEbA+dCuUCIQXG1D7uhxiB5doCmRhH89b+JDmkfAQ9sv0uyBNzkwdEaQuta/xf3WxrXnmM+Uv6Ry3/6ItDMbmh7VxXE4f2CjDkA7lN4xM/t9NGnifpwyDS6VrSRD85vut1DXmSzpqY2JG7AeRg5ZmTnCQ/BcbUPu6P2kZxwyjXFsjEuFBixrbxhPXzykge6D1t5Mn9RJdGDvaqO+9bG/R0RfVFolhsvI8U1zy5jpjv5XYeC+Cc+oSqefhe22oxmcoRqQtz1BzQ5NjYenblSYJO0ifp+MRAitqWjx3FMkDVdj2QJzRAmQJGDQRGtin7ORgluPm+1GljLEFrWzJPh0rH8Xk2PtJXPPB1LCY5dkGWJI08GfHTduCH5JfEhnyliW+Ovdz/WOZ+6IKcNDb7uWUcPIedI+bK2yLytI8h615xA/hjicoDASJAImI9dNqeI9eD7Oi7oiE7tECNkWdjp57AvE0ZwOd+4ss8aeVBgffjy429gxU99auTTHFgisWh0dHuEz4HSZC1LS0HplhsaD6a+Db2hn3C/Rdbhq3Ab6yfZrvGZpKTYzfs64LcMYci8qTB9jcc7QQaSy44X7Z1ElDi1oQ3CGiecKhUpSy+ngKOFqi1beK0ndsik5/bIJf5OC3xDcpoqjZtUsTmAdnwlYYEalmC3BD3toqRdHJ90n/Yl5ob92MIC5r4chnlsWAfvlEceODvUKuxmcadWvIk44lAu/g7jnH9AzgkUajiC4KGfXmerm3RndRQ5UljkVhVkusekg8lBgdqKPlgZ00UgjwHbQk/EA45vK1l+oOFfhyXgQRSEVVd7cYrQu7XmO9JP9cb8mszt7gu4INsD9kPW2J2UOygh8aH4pcd345i4W2OvO3D4xda1tqMGMT8w2XXvhQHOt4nd7m48oQiOoUf5hoojR3X/y1CcmjJk3yKICOhYsDgAPOJJ1/PpMRi75qHEgsxhE5vZ+QbjEjSkByNLaHXM3nFQ7rpPW/+6hzJ9V8Up3kESBv2wzbvh8AHSPBVcvhUVniQw/3v/ybCH7y2/V9FoA/Z1OfXSDIi9qRTzs3P6+hL6/TaLF6xlHb1yfDzag4weDXTy8a3YiM+0sS3q1gQofHHp6oPqPTH1fs58THkvjjQM9ARTJ568gSo6C685jEmvEVEfbV/twEdp60F+D0pKY/Ckohi5Em+8H0VHwYh4uGkJP0IO0EuaHlFBYIKkWdti/gwA+SgDc0FJIA+sTamt9at8APJlgQlfVETDZGiIAJpW+p02tvVOp4uyTSXHkK2wR6pm9YrUl6sD7gxH2ni6+1l78qH9GFbTA98qY0p5IXmrbF5bMgTjqOH2+ntoEtfPnVzXz1z8w+f+x8t0zbaV/IAPOSfphYAyCFPmh/GVQkyeM1T+gCVFT/ik86cz6aFAJ9DnrCpqjDFw9v0MHfiE251NSfI188BH8UQX4WCPt7WfpByIn8FwcdiGWQFYiS/0F9FINGppQ+fxKohyEHrP9BC/w/FH2aHPTO6T9LBp302MH/WNkcqT7KlLb61vaispQ8JTxmxIHmxeFQ+pH9XWE/6sc3msSNPBMHa9htK5qOT56OaiCKn4xazkxez44rJ0Nc8j8tw02sgHgUGjDwNV1pcGXleMLBowTIJ/Yw8LR+0ODfyNPJs/WK/Fkzj0M/I08hTi2MjTyNPI0+GASNPI08jT5YQWmdYP0scI0/DgJYHrPI0krXKk2HAyNPI08iTJYTWGdbPEscwYBjQYsAqTyNZqzwNA4aBAgwYeRY4TXtksn5WxRgGxhcDRp5GnlZ1GAYMAwUYMPIscJpVE+NbTVhsLbZaDBh5Gnla1WEYMAwUYMDIs8Bp2iOT9bMqxjAwvhgw8jTytKrDMGAYKMBATZ4LS9fcxYX37Gc+MAwYBgwDCgx48nzz7Kyzn/nAMGAYMAzoMfB/tssIuTHbZM4AAAAASUVORK5CYII=;" parent="1" vertex="1">
          <mxGeometry x="-708" y="129" width="335" height="58" as="geometry" />
        </mxCell>
        <mxCell id="UeKgmQtvJm2V4L9KuCcI-52" style="edgeStyle=orthogonalEdgeStyle;rounded=0;orthogonalLoop=1;jettySize=auto;html=1;exitX=1;exitY=0.5;exitDx=0;exitDy=0;entryX=0.5;entryY=0;entryDx=0;entryDy=0;" parent="1" source="UeKgmQtvJm2V4L9KuCcI-28" target="UeKgmQtvJm2V4L9KuCcI-37" edge="1">
          <mxGeometry relative="1" as="geometry" />
        </mxCell>
        <mxCell id="UeKgmQtvJm2V4L9KuCcI-28" value="" style="shape=image;verticalLabelPosition=bottom;labelBackgroundColor=default;verticalAlign=top;aspect=fixed;imageAspect=0;image=data:image/png,iVBORw0KGgoAAAANSUhEUgAAASUAAAA+CAYAAABtAQ2bAAANM0lEQVR4Ae1d61IdxxH247gMwiCQgBQIsGMRLOPoCF+SiFSq4lDkYqXgR2JZCAtV4pQrlVh2GTuJI+UBKB5C+cl7kOeYVO/yzelt5tK7Z9FZHfrHqdnLTE9Pz9ff9MzO7nnl1fEZZz+zgWHAMNAVDLzSFUVMD3MKw4BhgDDgSWlhec3Zz2xgGDAMDBsDFVKaX7zprv/gTfuZDQwDhoGhYaBCSkRIr08v2s9sYBgwDAwNA0ZKBr6hgc8GQAsAQhgwUjJSMlIyDHQKA0ZKBshOATI0ctq1yxVRGSkZKRkpGQY6hQEjJQNkpwBpUdHliopC/W2kZKRkpGQY6BQGjJQMkJ0CZGjktGuXK3oyUjJSMlIyDHQKA0ZKBshOAdKiossVFYX620jJSMlIyTDQKQwYKRkgOwXI0Mhp1y5X9HQhpDT5xm03c/f37vrHn7vZP37t5j77vvjRMV2je5THwHa5wGb9bf2twUCrpDS9/nM3+4ev3Pzj/6h+lJfKaBS1PAZow8DlwEArpDS5uOZmd/6qIqIQYVFZkmGguxygs362fk5hYGBSmrr5vpvb+64xIYGkSAbJSilr9wzMhoHRx8BApEQkMv/o6cCEBGIiWUZMow86Ixbr4xQGGpMSTbfaiJA8IZ2tQ5FMm8oZaFOg7cK9ialV9+Roz/3vvw/dyf5q4wi/LTnDsklvf7ewwenRputNLTS2A9e/MSkNsoYkiUiek2yuZO54YWPJvfNw2d3524rb+PuKe+ezZbf0sxu1ZOTqaHp/Yn3TnTwvwUsAPt7Sd9zE1nbZ4c+33U5LHd60HVQOADw57HXCtqm2wHZ1bZ6Sye+1RSZN5fS2Nt3x4a47OSNGaif9To/o2rZ7srXaGknwdstjYGLopERPzCSRtH2ufSq38N4Nt/HlSvC3tLk0dOeRpHRag2DgWHXKSNBoz3vrPfeEQB4Z9Semeu74jFxPn++6J+t6ctXq0FY+7uiFo14AifI6YjbTtKeunN7WdmWQAxmF0pBeuX7W6MzzdIaUNI/95w6eupnth27i3btubOWWe23xLTf21m030fuFm/7dgZs/eJYkNqqDNz52fGuvJKSlu0tucuZG8aNjIqp3/7SikhGT3cZ1SUoEnhBYQnW9KFLSOgYA2PVISdr8IkhUa7NQv/JrWjmUb+ewH3FTRHS833M9MThMrK86iqJCA4y2Lq5f7hiYGGqkRJsec1HR7N537sqtnxRERGQU+r2+8cusHM0Gy9tflKQ0Nd9fh5m8XkZPd77sDimRY1C4XYzcykija6SUA2hX7vcdZddHFdqBQNuGthxcI4fnKXC01WwNi8tpyx59Ww9xTYl2Y6dIafbgqbty68OCiK6svVdERbMPDosysw++dTO/feTK64+TcqgOqisHElpDoqhI5sOUTl5/0ecYtcvRmk2BFAuDRkr9gUbbb1XH6/noos2RnHSp1tOMJLRy4Pg0oNVZk5Q2a0tnLhe6tWnf2gvd1+/9JUkmV7c+LQhp/O0P3dyj78N5M1M3kB7VxQ0QOqZo6OUhpQUHotFM45D3oteULgKsob56Edf6NivXvXA+qENL3duyWU4OBjUNXqSO8jxXl8yvOe8EKeXWkzBtm7n3eZiQlK+gEDFp1pXuiEgJEZI21Rh+kDwAFdY1ODByZAOHyuUj/SawUC2exuBJTKgNABQBPvbjIzPWNE4zC8e0rrGzv33uyRDpsrMejyqKJ0pH5RQX+uTKyHZ5Hc8i0coCfUZvKSuuz0KtSGkQOb49NR6QnGvH2WN72DSU8n6WuCswe7b0QGX51A8YGmqkNLf/ryTZjC2/XURK0SipBilRXdLA8hzkg+s416Yod1GpJCWqB9eog1MOLsER0pEAs8MAEwJcUQ8RgthWAEDFytB1DlbvIAnn7hEZsS0QUnaIYDVt4I4QskNhV/aEkOf3eisdmw8cUn+cH2/l9ykNKocTKm9PrP2x63X7uYq7njuWAx17QgvZLwkppckLU7RUqiEl2RFaMkI+Wb7tcxAQIiXIR2dKx8d9SqvgCD+Ch8ORHHoqxp/G+IgFj/IDxFTUo9wIiLpiRMrbJCMcctAyYjhPjl4uPQygJ0pn5CnJihMktxOOUb+0NfogZWvI4ERCcrg+lKdsQ/8pWGF35qRtyun3fztbMHjbUiTXr3fbHR/uuWIgEU/50E5vc8UaKcrk0tprStrp27V7f05GVCkywj3N9E02EGSjTWX5ts/hEOcchRFBKHogPTg4ZJTD75fOFp8WQQeNA6XA6skjEClB11gdMbvycjHS8cBPRDrc4SRpVu5lnEejD5cXa28bcjTtjtk1dJ3rnepnrrvErZTrdczYVZZLndcmpexC90f3yydvqxtubv+fQWKaffCNm3v4j+A9EBKlmoVu2TgtGSGfLN/2OQgh1Lm4lwN2iLQ4wKQThtrgwRNwbC4rBdYYKfHyGl2gn7Ycn8bEiIvbMpSn3/541KHVh/Tn9UmbtSWnr/P56BI2rJNyvaTOXA4npVQ+KuN1HCYp5bYEzD1+5sbXPiiIaeyHP3bTv953xZaAg2du9pOv3dVf3Xfjb6wX+5jmHv07SUyaLQHcmHQMstGmsnzb5wBviJSoLt+pgb1LAEeQlM5eX4nJle2AHkSA0mm1YI2SUk1doBt00rQBdcecBPdDtqL6UFdsAOB5NPqkbIa6BpXTx8ZwSEmjv9dxmKSk2jz54NDRloDQpklcm/zpb7K7ujWbJwFwpFoyQj6Uu6g0B1AeBcjFwiQp1XwvLulEbCoZc3qyj3d8MX1L6Zmyqy+nAHSsbpJfsaHQDfXz9keJq4ZNuTxpM9+uQFQKfZCm5HiHV8iBvFSaqouXq6O/11HRh7yO1HHt6RsJy60r0dSLIqarH90vd3Yvr7nXln7kxlbvuMkPtt213S+SERKVb7KeRLqBbLRpyjht3MuREtUBEMhRHNdDTlQXDClApu5xG8SIoa4ukIly1G7tLzQ9hJ1IhowCURelvL5QPtyXgwOXgeOUzdqSg3ZpIhbolUpTOvNy/XrzEVqdtvI6UseNSKlLL+TKxmnJCPlk+bbPNaREdXqHZ6NiChx1wZACZOoet4fXUUQjdXWBTJTTEhLlC5ES9BpUDvTpDCmxL0yESBR21Kbafk7hTtZVx2aybOy8ESmRsC59uoQ3DmSjTXnZizjWklJoCpIChwcDI7GU/hyQEuD8npyKcJlwfkkMXpeaIXzTclwn2LcOIRXkFljDq6NPymZtyalgoqZtuY1wnNIZeShN4Y7no+M6bZVlY+eNSck+8qZ7LwtOownBAQZyGiIOnIemb3XkUuen8mvBGiOlvp7xJ1shAPbL5acJofJ0zTuFlpxZ9CEJuK9Pvh2cMC5KDm8fMBGzg+a6tp/7dsj3i7d/C6SJNjQmJRJgn8PNE1OKDNAJPPWOT07mn2qdBwd3Chm5cHk4ToFHC1avm5i+cV2kg6L+UMrLyegtlF9e43prbEDlK2WEI6GviABy7YA9Q3nbklPqy17iVhKvtBPOedtT7XupSYkaS8TUxmdxR/WPAwBQTaRUgJCP5IflKxuhSInycseg1x4APplCh9hoy8Gacu4YKZ3XJbz7XOpF515mQcL6clQWzhNrV6i+XLm+PvFoidszRErVdg0mR+pbYCGyuzrWXlzX9jPsGsMd5FEKDGrW4Xi51PFAkRIE01RukDUmKjuq3+UGgLWkxDuaAE+/GDg4yArnkK+Z0Htx7F20FOF4cNFaS4TgvMOKSIl01ugSes2ER0tkIyJXvGYCucXXEqkdol6vT80IolKnkIn+Ku1e1YfaiC8/nh5t+3fCQlFHW3LgY0QU/J3Ck8PN4uVmbqsCO4mPvBX38U3tRD+PBCnBcPRUTrNdALu2Ka/2s7eo42VLAc46pCQdPEZKZIsir+KF3OK9OPFCLrcl9AQRIuXTKk8CwpEhR+oNGTwNtYW+cCBf+uRlcMxJlRNLiBSgUyz1bQkQmiQA1I+UCGlHsberLTlog9ZO0DNkF00/jxQpwXi06ZF2Y9vfdqcXmGGvUMrBE3JkWcZ/e5m9oU9EWI6oumlRCPR1SAk64VMdfGQvPmhfjO5hXYjQQp87KdpAH8JnL+pSPZXIrsF0hts37Lzl1xdkG/CCLifgUHnYongpmr59zvsFn7KdqvcJFMj0fS3e3icyOiHZh5vRaJdk5Pp5JEkJxrM0vxBuNjIbGQaqGGhlTcmMWjWq2cPsYRhojgEjpenmxjPgme0MA+1jwEjJSCm6lcAcrn2HM5vmbWqkZKRkpGQY6BQGjJQMkJ0CpEUS+Uhi1G1kpGSkZKRkGOgUBoyUDJCdAuSoRwHWvnwkaKRkpGSkZBjoFAaMlAyQnQKkRRL5SGLUbWSkZKRkpGQY6BQGjJQMkJ0C5KhHAda+fCRopGSkZKRkGOgUBoyUDJCdAqRFEvlIYtRtZKRkpGSkZBjoFAYqpDS/eNNdm3/TfmYDw4BhYGgY8KT06viMs5/ZwDBgGBg2BoyUjIxtMDIMdAoD/wdDomyZhjZjyAAAAABJRU5ErkJggg==;" parent="1" vertex="1">
          <mxGeometry x="-693" y="-353" width="293" height="62" as="geometry" />
        </mxCell>
        <mxCell id="UeKgmQtvJm2V4L9KuCcI-34" style="edgeStyle=orthogonalEdgeStyle;rounded=0;orthogonalLoop=1;jettySize=auto;html=1;exitX=0.5;exitY=1;exitDx=0;exitDy=0;entryX=0.5;entryY=0;entryDx=0;entryDy=0;" parent="1" source="UeKgmQtvJm2V4L9KuCcI-29" target="UeKgmQtvJm2V4L9KuCcI-30" edge="1">
          <mxGeometry relative="1" as="geometry" />
        </mxCell>
        <mxCell id="UeKgmQtvJm2V4L9KuCcI-29" value="" style="shape=image;verticalLabelPosition=bottom;labelBackgroundColor=default;verticalAlign=top;aspect=fixed;imageAspect=0;image=data:image/png,iVBORw0KGgoAAAANSUhEUgAAAO0AAAA8CAYAAACKLz0FAAAKqklEQVR4Ae2dbVMcRRDH83FSQi4QSO6wIEBigoQQcxATNVhWGSl8igUv1MhDIKWxUpYGU55RY+IHoPgQ8SXfAz/HWL1L7/U1szM9x97dzlW/uFp2dx56e/6/6dnZ2eXU6cFRoz/1gWogHg2cgsYan5rVn/pANRCJBjJoxyaumgtvXtaf+kA1UGINAKcZtADs2ZEJ/akPVAMl1sD5scsKrXZU2lHHpAGFtsQ9akxCUlu71/EptAqtDoUj04BCG1mDaUTrXkQrq68VWoVWI21kGlBoI2uwsvb+alf3RgAKrUKrkTYyDSi0kTWYRrTuRbSy+lqhVWg10kamAYU2sgYra++vdnVvBKDQKrQaaSPTQEegHbp004ze/cpc+PKxqX7zzNQevkh+8Dccg3OQRnvn7vXO6uv+8XWh0I7Mf2iqX/9qxh79I/pBWsijguofQWlbdr4tC4F2aGLWVFd/EoFqAxryQhna4J1vcPVx/D4+MbTDV981tY3nbQOLEEMZUJaKKn5RaRt2tg1PBC1ANrb98sTAIrhQloLb2QZXoOL3b9vQwnC2iAibAXt0Hwxl6lA5fmFp55C2YX1rzfz376Y53Fsy9eHxQkaSbUN7kntYDirfh7JDGn18cdJc35wyCz9Pm8Vfps31h1Nm8oOLQWWE1BeStjK/ZA5ebyQNB423vyxvuMryStrgr1fMakENHmI7T4sCPGjUS+Fbbh/dry8vmf3GmjnYa/o+hQeOrZjd5ZnCIKL18r/RZz2HFmZ8OWhF70tnlcdvXTSLT6etv8mlyZ6Li0N7GABgN6Gtz9fNLoh8a8bqs8pw3ewfdT6Hr9fM7ry88+FC7uR+fXmlpZMEUPN+tmv1+SHU9tJAK3msU9t5aUZXNk3lxl0zMD1n3pi4Ygau3DSV+kdm5IsdM7bzygk+1CFx0NxGCuzk3UkzNHox+cHfAPKN76dFZUjqaTcNhxYEZBOLrfxuQVsZnjG7RxHJZRsKsIyRFq5htdGMqod7a2Z/q27qrHOpzM8YiMK2DkrqB1tb5R1Dn/U00sKiCF9UrW48N2fm3ktABVhtv7OLH3vLkSzAuPkkhXZ4rHkfOHQhjb4LT8sDLUQnGK4lQzRhpCobtHnC7PVxClvi52X7aMFnJy3H1Xn5yqHnSwEtrGZyQVvdeWnOzN1JQD0zeyuJqtX1RpKnuv67Gf1826THHznLgTqgLuoA299wDwtRlZ/DITM/3u19jLTpkJIMMQUTEwptsyN2tRuCAR1iyJwBL7Nvob1w/0cnbOeWv0uAHbx2x9S2X9jTeobG2ClAXdyxfB+iaTzQjhsEUTJMxrQh98HcP5L9TohVUm8RabBTlPjTV18n/IAdSk+Hx777WRwWj95/bAdWuMQRwJXc1y6wSIsRVrr1NeRJz6OocPKGCsMHYwi0FZxIYrOlOFNquw4UFAg+70cjF94zHnpmj+G+cXVr5djMLdiyOp8/dE1mfPfSWwi0x5cnsylggo/7ItQPvF2SNj269eGdB5bdU2hrW385YRyYupZE2twoGwAt1MUdzPcRTjyO+9It5uvUlkML9eAxaGAXAFwcNhtBMKtEMCh2vj0EYNhjIxQUT0v3Q6GtA6zkERctC/62dVSSa7DdY9IZbdt5m79sx0L90NoudbPPO0oyA49lRwKtG24cAru2Emh5I0hhxXQ8f9H7CChGWiwfGxOETMHA87BtFYf9EQtGGigHZnXpbGkW8fBRjQXcpB7h7DHWldfR0GviERLATCPp8c4jKxcm62DG96hz4TBzPzX9U8wjKKhPMoverHfF7Dc20o6IzVJjO6JPegqtdHh8/v4PzojsghXPSYbH6BzcIozSLebr1DYPWioQW/QBe6g4eJSk51Pw84edaEMCNokCeM3UFlfEyuCyDI/R1rw6sC6+pfk4lJg2Ez4bAucdx3yhW6kfqM28M+Z1ZjYKJh553rz94BVR3omoew/SmeOZRVPb+tMKbnX9N1Pb/MN6DoGFrWQiil+YFFZMx/MXvY/A2BoXz+UJHcVhg5oKLC/y0WvJxMOED2loWe1AS/NLbEG7pPnoMJiC7bomrCNkS+1x+QHbJa/daJ2Zjb2E1vfIp/bolRmcvZ2AO/DWO2bk0y2TPPLZeWWq3z4z5z55YAYvzSfPcWvbfzvBlTzyoQ6CvxFG6ZbnL3ofwbRBC3VljWp5dovisEJ7tDwyr1x+HWgHCI0KH9JJxZoXabFsqS1oW0g+rJvC1PTd8SE31hGylfqh2S7+YXlmYy+hFS2uWG8YeORjW1SBx4be/8y7KkqyuII3ihRWTMfzF73vEyaNIvy+pymO46J0nbNdg0uQrnO0LASHR9NQW7DMLJ9A0La6MyAsowesI2Qr9UNmt6DezEbBNUptDR4eQ8G++1oY2kLEPXfvQboyamrWvDH5thmYWTBDt1fM+bUnzggL+du5nwXbEEbpVuqodtP5oIVyUQR8uIXHbZE2VAwuQbrO0eu2gQPnQ23BMjEfXLf0RzuMpn/8EQ/rdG2lfmjWe7wz5eXjNfIOmacL2W8L2jK9MMAvVgorpuP5i96XQAt1ZkCQ3tsljlAxuATpOkf9kdnIJqJCbcEyMZ8UWEjXAi15g4oP+bGOkK3UD6524fXhNfYcWjCsTK/mUUchjNItzduJv6XQtgyTj6BwiSMTA4HcZT8VJBc4PUfvGXl5nYK2XUG3+KyA4afUD6524T7L2qkA+7DstiItZNaX4GXrYqXQgk9RDBBRACzctw2PQ8pNynZMXEnFmgdt086wYWozn3+YiYLlW4QCfcbPh+xL/RBiN9rXbsdks79taKEw/dyMH9xQuDIwIIJmoB0XdUuUYcNVW0O7xCMVa2Ybq4/a4orU3C6aj0d/njZvn5Zh69zy8tmOS/0QNbRw4QBuEZ+d6dcPu4VCi+khchw00iWBeWJEENMoI1tcYYODipXeM3Jh50EL6Vptsa/e4uXBflZm0knJ89GyECLwQ+KrnNVJNI/tb6kfsL68dqFlo19KE2nROBgqn+QeF/L263ehEMKQZ5jY0CDCTIhs3TD4nooM0h1bxgjrkslaYBeQWGdiZ877qBlgLNJKbbEtY2yNlGtmn30GBq4x+ZoEXIelXtQggETXPB80lpKXE3BJJKarO16ChzQSP/QFtOgQmFWWPA7CVU+QVvpZGawjtm070HIYXT16klbwwkACtAV89CfaiR0FbmlkdkEL5XC7sQy6tV0LvKHEF93TPPi3q9NJ6heWg+XZhvISP/QVtCgAWBQBq5n034I03+gJibSpAJsfhLMJHX2N2+zbRuQNG6gzjTiyYacNnhBoM1vgo2p7ay2RDz7/4rIFgLe9zpdcA3yIjbxIgPXkbTNfsLdvANYD+AxNYyn5sFtefp8f+hLaPGfocf/ElfpIfeTTwIlmj32F63kVoGqgeA0otJH9m0OFoHgIYvOpQqvQer8OEpuo+91ehVahVWgj04BCG1mD9XsU0evzD/8VWoVWI21kGlBoI2swjUT+SNTvPlJoFVqNtJFpQKGNrMH6PYro9flHEgqtQquRNjINKLSRNZhGIn8k6ncfKbQKrUbayDSg0EbWYP0eRfT6/CMJhVah1UgbmQZaoB2buGrggP7UB6qB8moAOD11enDU6E99oBqIRwP/AxsNiCaLWHvpAAAAAElFTkSuQmCC;" parent="1" vertex="1">
          <mxGeometry x="-1699" y="37" width="237" height="60" as="geometry" />
        </mxCell>
        <mxCell id="UeKgmQtvJm2V4L9KuCcI-30" value="&lt;b&gt;&lt;font style=&quot;font-size: 24px;&quot;&gt;getNotice.jsp&lt;/font&gt;&lt;/b&gt;" style="rounded=1;whiteSpace=wrap;html=1;fillColor=#fad7ac;strokeColor=#b46504;" parent="1" vertex="1">
          <mxGeometry x="-1685" y="297" width="211" height="53" as="geometry" />
        </mxCell>
        <mxCell id="UeKgmQtvJm2V4L9KuCcI-31" style="edgeStyle=orthogonalEdgeStyle;rounded=0;orthogonalLoop=1;jettySize=auto;html=1;exitX=0.5;exitY=1;exitDx=0;exitDy=0;entryX=0.5;entryY=0;entryDx=0;entryDy=0;" parent="1" source="UeKgmQtvJm2V4L9KuCcI-16" target="UeKgmQtvJm2V4L9KuCcI-24" edge="1">
          <mxGeometry relative="1" as="geometry" />
        </mxCell>
        <mxCell id="UeKgmQtvJm2V4L9KuCcI-47" style="edgeStyle=orthogonalEdgeStyle;rounded=0;orthogonalLoop=1;jettySize=auto;html=1;exitX=0.5;exitY=1;exitDx=0;exitDy=0;entryX=1;entryY=0.5;entryDx=0;entryDy=0;" parent="1" source="UeKgmQtvJm2V4L9KuCcI-36" target="UeKgmQtvJm2V4L9KuCcI-25" edge="1">
          <mxGeometry relative="1" as="geometry" />
        </mxCell>
        <mxCell id="UeKgmQtvJm2V4L9KuCcI-36" value="&lt;b&gt;&lt;font style=&quot;font-size: 24px;&quot;&gt;UpdateNotice.jsp&lt;/font&gt;&lt;/b&gt;" style="rounded=1;whiteSpace=wrap;html=1;fillColor=#fad7ac;strokeColor=#b46504;" parent="1" vertex="1">
          <mxGeometry x="-275" y="286" width="287" height="53" as="geometry" />
        </mxCell>
        <mxCell id="UeKgmQtvJm2V4L9KuCcI-60" style="edgeStyle=orthogonalEdgeStyle;rounded=0;orthogonalLoop=1;jettySize=auto;html=1;exitX=0.5;exitY=1;exitDx=0;exitDy=0;entryX=1;entryY=0.5;entryDx=0;entryDy=0;startArrow=none;startFill=0;" parent="1" source="UeKgmQtvJm2V4L9KuCcI-37" target="UeKgmQtvJm2V4L9KuCcI-59" edge="1">
          <mxGeometry relative="1" as="geometry" />
        </mxCell>
        <mxCell id="UeKgmQtvJm2V4L9KuCcI-37" value="&lt;b&gt;&lt;font style=&quot;font-size: 24px;&quot;&gt;AddNotice.jsp&lt;/font&gt;&lt;/b&gt;" style="rounded=1;whiteSpace=wrap;html=1;fillColor=#fad7ac;strokeColor=#b46504;" parent="1" vertex="1">
          <mxGeometry x="-339" y="-215" width="287" height="53" as="geometry" />
        </mxCell>
        <mxCell id="UeKgmQtvJm2V4L9KuCcI-45" style="edgeStyle=orthogonalEdgeStyle;rounded=0;orthogonalLoop=1;jettySize=auto;html=1;exitX=1;exitY=0.25;exitDx=0;exitDy=0;entryX=0;entryY=0.5;entryDx=0;entryDy=0;" parent="1" source="UeKgmQtvJm2V4L9KuCcI-39" target="UeKgmQtvJm2V4L9KuCcI-27" edge="1">
          <mxGeometry relative="1" as="geometry" />
        </mxCell>
        <mxCell id="JK0r9D_tuI9x6pK2y3JA-2" style="edgeStyle=orthogonalEdgeStyle;rounded=0;orthogonalLoop=1;jettySize=auto;html=1;exitX=0.5;exitY=1;exitDx=0;exitDy=0;entryX=0.477;entryY=0.021;entryDx=0;entryDy=0;entryPerimeter=0;startArrow=classic;startFill=1;" parent="1" source="UeKgmQtvJm2V4L9KuCcI-39" target="JK0r9D_tuI9x6pK2y3JA-1" edge="1">
          <mxGeometry relative="1" as="geometry" />
        </mxCell>
        <mxCell id="UeKgmQtvJm2V4L9KuCcI-39" value="&lt;b&gt;&lt;font style=&quot;font-size: 24px;&quot;&gt;getNoticeAdmin.jsp&lt;/font&gt;&lt;/b&gt;" style="rounded=1;whiteSpace=wrap;html=1;fillColor=#fad7ac;strokeColor=#b46504;" parent="1" vertex="1">
          <mxGeometry x="-1220" y="295" width="287" height="53" as="geometry" />
        </mxCell>
        <mxCell id="UeKgmQtvJm2V4L9KuCcI-40" style="edgeStyle=orthogonalEdgeStyle;rounded=0;orthogonalLoop=1;jettySize=auto;html=1;exitX=0.5;exitY=1;exitDx=0;exitDy=0;" parent="1" source="UeKgmQtvJm2V4L9KuCcI-39" target="UeKgmQtvJm2V4L9KuCcI-39" edge="1">
          <mxGeometry relative="1" as="geometry" />
        </mxCell>
        <mxCell id="UeKgmQtvJm2V4L9KuCcI-62" style="edgeStyle=orthogonalEdgeStyle;rounded=0;orthogonalLoop=1;jettySize=auto;html=1;exitX=0;exitY=0.5;exitDx=0;exitDy=0;entryX=1;entryY=0.75;entryDx=0;entryDy=0;" parent="1" source="UeKgmQtvJm2V4L9KuCcI-59" target="UeKgmQtvJm2V4L9KuCcI-21" edge="1">
          <mxGeometry relative="1" as="geometry">
            <Array as="points">
              <mxPoint x="-799" y="-75" />
              <mxPoint x="-799" y="-148" />
            </Array>
          </mxGeometry>
        </mxCell>
        <mxCell id="UeKgmQtvJm2V4L9KuCcI-59" value="" style="shape=image;verticalLabelPosition=bottom;labelBackgroundColor=default;verticalAlign=top;aspect=fixed;imageAspect=0;image=data:image/png,iVBORw0KGgoAAAANSUhEUgAAAVEAAAA+CAYAAACSoyh5AAAO5UlEQVR4Ae1d63JcRxHO46RiW5Fs2ZIoybITYsVxFLx2SACLooqgEpeYkn4QjG35UmAqRUGMCxHA2DyASw9hfuo9xHMM1bP6zultzaVn56y1WvWPU3MuMz3dPd980zPn9tbbp2edbeYDw4BhwDAwHAbe4o5bvHTV2WY+MAwYBgwDegwcItGFpSvuwnfet818YBgwDBgGFBg4RKJEoO+eW7LNfGAYMAwYBhQYMBJVOMkGFRtUDQOGgRgGjESNRC3aMAwYBiowYCRa4bzYyGTnLWoxDJwcDBiJGolaFGIYMAxUYMBItMJ5Fm2cnGjD2traOoYBI1EjUYtCDAOGgQoMGIlWOC82Mtl5i1oMAycHA0aiRqIWhRgGDAMVGDASrXCeRRsnJ9qwtra2jmHASNRI1KIQw4BhoAIDRqIVzouNTHbeohbDwMnBwMhIdPq962721q/dhS+fuLmvnrn5B8/9Rvt0jq5RHgPbyQGbtbW19SRioHMSPbf6Yzf3m7+6hcf/UW2Ul8pMonPNJiMNw8DkY6AzEp1euurmNv+kIs4QwVJZkmGgm3zQWRtbG08SBjoh0Zkr33fz974dmkBBqiSDZE2Sg80WIwzDwGRjoJpEifQWHr6oJlAQKckyIp1s0BmpWPtOEgaqSJSm311EoA2BHqyjkkyb2ltHG/eONjWz4p6+uuf+99/7bm97ZegZVFdyxt1f46Zfb3vLt93+qzXXm1kcuv2qSLRmDVQSpzwm2SVOX7y57D6+f8nd+PNld/Mvl93HDy655R9dLJJRUl9J3qnVNbf3ut/ZqMPtrusbbGp9o9/QrzfcZkVDl+ibygvg7e30xsK3KV3hu1Kfp2Tya12RX06OxA/Zw7f9V1tub2fNba7qccXteNP7vfU1t7uz5fYOBiDY4u14teGerq9UkZrWHmD5yEiU7qhL4uv6WHvXfvHTi+7mN5eD2/La8pF3dtkJ9gsIEURQUkYLIpmvt9pzTwnckahqaqbndg8Gg/3XW+7pGHdaTkzUSfdHQPq8jpjPpI9Dxzk5Ej8gnVBKg1tNVBXSr6tzvfWNgWAipD/OhfyZw2epnkdOoprHmOYfvXCzG/fd1Ce33KnL19w7Sx+4Ux9cd1O9n7hzv3rkFh69TBIx1aFxzLV7fQJdvrXspmcv+o32iVg/+f1llQxNPcPmCXWCEEhC8t8UieY6MnQD8MY9EpU+HwXpa30G38XSnBzYErOByGX3VX9qSiQ0igEjprvmPNm3udPOxCji3N3uuZ4YhKdWVxxFqaGBPOcjjR4yD7B8JJEoPSSfizrn7n3rzlz7gSdOIs/Q9u7Nn2blaB7Iv/51n0RnFtp1xOkL/ej0xjfjQ6LUCWga44GujOTGjUQlEMf1uO0gW030ox24tDZ11bFzcnIkCn05UZUsGaH8KFJum8f/+nBrx1xOV+3YYuQI1kTpbaMUic49euHOXPvcE+eZq5/6qHPu7o4vM3f37272lw9d//zjpByqg+rKNS6tgVLUKfNhii/Pv+njwU7ApsSKBW0j0XZg1LbbYIfrNVFQbcQh6x+sZzhyIJk5OYP4ia97Diy3jGD5QtqvOQZRUeBQQ+w5H2l0kXmgWy0uhrqxdOH2H5Pkd3b9d55AT3/0uZt/+DycNzOVB0lTXdJ4eUzR5vEh0UUHYiRg5UZV5B31mugoQCrb6U0dtz7rr9viuLYjS/278llOjp5E26cFaolB2jrMMfTW4DwnP+ejXPnQ9SMl0dx6KKbxs7efhAlU+UooEalmXfSGiEQRgWrTkIO7PAcwYU2LAyJHjiCAXD7Sdwo3hsRdz72DO54hmwAkAnps4xEEpoy5dTda39rc3jh0B5Z02VyNR23+zi1b3/MdMFNG2tXoeBDp10RocX0WsxEk16tGjsQPlyv3pe24LnHkMXiwtJQiuWEwhTobXQpupKIs0lJ8ltgJ2bUDzlCR6Pz2v5LkeOrSRz4SjUahBSRKdcGhsRRkies41qYoN6o01AlwjgCcIiQJipCO1CE2WYeIkeE+kZF4TApAipWh86Uk2iPyZI90SdmhAUFjQy5qJ99wwuT5Szs0H+ik/jjeXW8jP14Xb6Mu5AArGIS5fL7P65KYGsQR3Yhqb/SQPVJ/TXtQuRCmUu3A9dXsl+KzxE7IHnMSTZMtpuypVEOisjG05Il8snzXx7FOgEYkMHKi4vUPgiK8HgaC8J2BHnFhdz2biBCPJgWIlOrjHVB2KK4P6pKdFHm4TTLqpDr6EdlhMm/k0s03unN7QPayM8f8JOuXhIM2SPkaMrgv/M0Qpg/l6duQJiHK15mcg+eMpU3QFym3UbYhx9Huzj3nBzKGE8hAivYYFlNtfd08Csd9KW2DzpS29W64nJ3A6pGQqHY6f/72H5IRa4o8cU0znedOpH2QozaV5bs+BrhlJ+DACEVnpAcHhYwi+fU+OcSnydDBd4rAc6BclxRI0blCJApdY3XE/MrLxUiyAXxiashtkPoNXMvc0NPow+XF7O1MjoJEuT4hLHFdJA5lu/C8FG3L6zhOYUrTXpCjSbl9KXxy3XN2Njpm8JDTb6jpfPbG0hd3+nfmV266+e1/Bol07u7f3Pz9fwSvgUAp1dxYkkZqyRP5ZPmujwG2UKPiWq4jBjsGe+1QkkbIhgY0ASLSgjRGory8Rhfopy3Hp+kxouW+DOVp7Y9HR1p9SH9en+zYXcnh9QTx46P7du2Z8oRs5+QidUVb+Lo6wlTr68OzDl6fdp/7M6n/wRt+sf7E62t0PAoSzT3iNP/4pTt99TNPpKe++z137ufbzj/i9Oilm/vtM3f2Z3fc6fdW/XOk8w//nSRSzSNO3DG0D3LUprJ818fobKFOQHU1jRl4dhTgD5KoIkLhtkAPApjsaFqQRkm0UBfoBZ1ivkE+SlF3rBPheshXVB51pToY8mj0SfmsKzlSb9I9tqV0bnEUH0B4XSlZlA8b7JSYajF9NCSq0b/R8ShIVPWw/d0dR484hR6yx7npH/4i+9aS5mF7NChSLXkiH8qNKgXQYg3Loyy5PtOC/zAYU9dCtiQ7PYtAYiRFMhuiEs8hluoC/ZpyCiDH6iZZAz4UujV1MRujRFvwrYKkPzuS4207GKBi5LlHbwBl3jdv/ByYhcA/vq4CvX1+5lOOm4agMvXxulP7KV/zclo7qUyjowJ7vA65P9R0noTk1kVpKk4R6dkv7vTfXLp01b2z/KE7tXLDTX+24c5vfZ2MQKn8MOuhpBvIUZtKp3R9nCNRqg+NTx2FgxHnQ52+FAQpIKaucX/EiKxUF8hEuRhBhM6HlgvgJ8ovo2zURSmvL5QP1+VgxmVgP+WzruRQXRr8QKdYCv+EcMTLlOjtdYuQaFtfOvLldaf2U77m5dp6DwcdPB/tl9oqy+N4aBIdpw+QwBikWvJEPpQbVartBA1BsdE7BYpSEKSAmLrG/dLoKKK9Ul0gE+VCZBk7FyJR6BUrEzofkgN9jER1r0LGcAPMk99DgxXaX5vG6pHlU/1F5i1pa1mWHw9NoiRknD6Fx40COWpTXnYU+wBUbDqPOkNT0hQoGhAw0oWsUMqBKIHNr/FIWMoBWUkCanQpnBoNW47rBf+GiDJ1LtQeJfqkfNaVHLIT9oX05X5I7adwxMs1eldiagDLhZjg+mA/5WvkoVRrJ+VtbK3Ur4pE7aPM7QI7b0i5X9IJAAKM4DgOTcNK5HqAJW7+aEEaI9FWz7LpW1suP/2SfsVx0xm0HZ+tMcoBo9UnbwcnilHJybUbfJBLW7vSfu4SU2gXYDmnY+q6Fp9aO6ku6KeZdaR0qyJREmy/B8kTaSkwG6IiUmiI7zD4eSeWkWGo0VOg0YK00U1M57kuklBCuuAcLyejY+RJpVxvjQ9I1kAZEYWgrajj5+yAP0N5u5Lj9W0wkCf2mK+05MLbQ+NP+CBERAOylANcVP/I2qvMr7WTyqV0l3JTx9UkSsKJSLv4Tcik/qgOHUo7HUN+3zl3+q9QhiJRDoT+aK97MDpEVgPEIgiSAyhGood1Cb9dxWVhv5HpBw19OSqPTtO3X182Va7VJ05avI1CJEq6dSUHdWnxA7/yFPbGcMTzglxqMUUyUS/J8nUn3pLiOsh9LT5RX4mdoQFA1p867oREqQKa2teskVLZSf2v0jCdgAO5AaB47538zsHlO7N87ZPeq2fvsqeiC9TpO2vkTZWGGAJEq9El9NrnYMRy+HEdkuu/ak52iHobfQojnYE6hUy0V9/vg/p4XQ6+0E7vjeMd9FDU2rWcN0WimnbUYspjVHzRvv8rk8O/AOklPspMcjT4PNYkSkbSRnftNY8/4a0kyqv9DQjqOG4pOlNJJ5BATo2sPq/iAyS5X0dATyIPvvHItSEtQTxoE6k3l4P9kC30tSAQEvKFUj4IcCIMkRh0iqWNLQECps6Y/IiK/waB4gMkHchBu5TgR9pcQi5UtitMQQ9t+6LNQ+0JPyAPUo7PEjsbUhZLOtBZm3YWicoK6SF5etvowpdP3NxXz9z8g+d+o306R9eGeZBe1nMcjtH4pZ0A5QgsIeKRtjf/oGFfUKI6S35iFgI7B2lDPBEShU749BsnotwP1ajjhj6f522gz/nJD4Hgb42BN72gRyrl/g132v7XsaQN+EAKHzBC5VG3/wgM/buKtwt+kTGT/6Qe9CzFD+qntIRceLkuMBWUJ74iRRj3Lw3srPkf1fEyfD+HzxI7x55EueG2n7/5ZD4yHxkGjicGRhaJGiCOJyCs3azdDANlGDASZR9TMPCUgcf8Zf4yDCw5I1Ej0eaLPNYhjBQNA+UYMBI1EjUSNQwYBiowYCRa4TwbtctHbfOZ+WzSMGAkaiRqUYhhwDBQgQEj0QrnTdqIavZYlGgYKMeAkaiRqEUhhgHDQAUGjEQrnGejdvmobT4zn00aBoxEjUQtCjEMGAYqMGAkWuG8SRtRzR6LEg0D5RgwEjUStSjEMGAYqMCAkWiF82zULh+1zWfms0nDgJGokahFIYYBw0AFBg6R6MLSFXd+4X3bzAeGAcOAYUCBgQESffv0rLPNfGAYMAwYBvQYMBK1gcMGTsOAYaACA0aiFc6z0Vo/WpuvzFeTioH/A4lvGfXtu3TYAAAAAElFTkSuQmCC;" parent="1" vertex="1">
          <mxGeometry x="-707.9966666666666" y="-105.99666666666673" width="337" height="62" as="geometry" />
        </mxCell>
        <mxCell id="UeKgmQtvJm2V4L9KuCcI-66" style="edgeStyle=orthogonalEdgeStyle;rounded=0;orthogonalLoop=1;jettySize=auto;html=1;exitX=1;exitY=0.5;exitDx=0;exitDy=0;entryX=0;entryY=0.5;entryDx=0;entryDy=0;shape=flexArrow;startArrow=block;" parent="1" source="UeKgmQtvJm2V4L9KuCcI-65" target="UeKgmQtvJm2V4L9KuCcI-6" edge="1">
          <mxGeometry relative="1" as="geometry" />
        </mxCell>
        <mxCell id="UeKgmQtvJm2V4L9KuCcI-65" value="" style="shape=image;verticalLabelPosition=bottom;labelBackgroundColor=default;verticalAlign=top;aspect=fixed;imageAspect=0;image=data:image/png,iVBORw0KGgoAAAANSUhEUgAAAMYAAAA8CAYAAAA9ksUiAAAIeElEQVR4Ae2d63IURRTHeRyKhCUhS3bXSrIJCDGExUyCoBLLKnFrvYCVfFAxFxJKsShLiZQrKoIPQO1D4Me8R3yOY53ZnNme3u4zPbM7ZGfmfJiaS3efvv1/fbp7dpJTp8fLIIe0gWggrIFTaoPMzC+BHNIGooEl6AOjNnsFpt+6JIe0QaE10AcGQnFualYOaYNCa0DAEAAKDYDNCQgYAoaAYdCAgGFoFNsoIs+LM8UWMAQM8RgGDQgYhkYRz1Acz2DrawFDwBCPYdCAgGFoFNsoIs+L40kEDAFDPIZBAwKGoVHEMxTHM9j6WsAQMMRjGDQgYBgaxTaKyPPieJLUwJi4uALl21/B9N1HUPnmKVQfPPcPvMZnGIZxRGzFEVuW+nroYEw1PoLK179C7eE/TgfGxTRZajQpa/5hHhoYE7NLUNn4yQkGEzSYFm2I6PIvuiz08VDAmLzyHlS3nyWGgkBBG2grCw0nZcw3wAODgUKu7b0YGAqCA20JHPkWXRYGlYHAwKnPMDxFAMXxugRtyrTKDoe3uwn//bsDR6/WwZucCXlYLiwLgoxbxrTqOxAYg6wpdBj0e7Qdp5Fm1upwbWceVn9egLVfFuDag3mofzgXy0ac/IYRt9Rs+QJHkXeaYYFz9jkxcGGczbhhXnMdOu1NOHy1HdShCys+a8FBc7EP2rh5uMRPq76JwcCdJF3Mw7533a2auTEHa08WjEd9vT6ScJQmF+FAEdVR23MuJycGLsxFaFFxvGYLDl+HYUAgTMfh7mJfnbyGBwcIlCEsKm9TeFr1TQyGy5Zsdf8FlFs7ULp+G8YWluHM7GUYu7wCJe9jmPpyH2r7L1m4MA9TY+jPlre7UNRv12GiPOcfeI2wXP9+wcmGbjPt+1JjPSSwo9ebcNBw8xqcGLiwQeqEIG+0e0AcvdqEzq4HnlbmUmMR0JuYxK8OBrkEA1/MRXmHyvYzOLv8vg8DAmE6zq19EmnH5SXgyuMuGJO13rx8YrrrRVafjCYYPQFvBoC4iqWX9s2sMVRBI8CdZr8ncIFOteNa1yi7XFtEpeXCE3kMfGvNgVHZfwFnl2/5MJxduuF7h8pW209T2fodyl/sQff5Q9YO5oF5cRXAMFxToHfQ49H0Sn9+0vdhgXjBSGxaTJvKyomBCzPZcnlGNuOuhXTb4Xong0u3SWVzbTs9ve0+ERjT935kBX2++Z0PxfjVW1Dde26OGzGNIvAwL1vh6Tl6hUyBcbzopulT3EU4JwYujNorzlmd8g06yucejKj1BU2hyvcemaFw/LkIwuGyzljVPAZ5CtdzHKEMIy7N1WmUK0160Dle0Loswjnxc2FJyh6U9XULNrStYVd7VCbTAp2eqbtyNFAcHefpA9XublFjfBVQsk1t6VqmqHiJPEZ19y9W8GPzV32PYfUWMcDAvKIqQQBQPLp3PVO6N3FWIVA7OI4AOTFwYXHrZytrXDtUJoLAdLaD4UFH2b3LCRg8QDRd4s4uYOgd5QoExdPTp3lPIqFpFOWlTllUkVC4eg5spPyCrzdyu++YqeXUr12nUr18W9Bpb4PvObTdL7LNtQXFSXJO5DFcp1IX7v3AehYOCApzmUrpFSfBu5719Gndq8LQp0yhMIPg1TJxYuDCVBsu14GtAaZRaj5qHVVvqcbBawIDvYM+gOhxgzJGtJmeLuo+ERiRi+8797s7UotrUN390whHZes3qO78YQwjKPDssvjWK+kKBMXT06d1H+UVgk6OeKcRxDOIgQuLW6/A1gmCwQGE9QnKaGiLuPVV4ycCI2q7tvrwJYwv3fThGHv7XZj6bBf87dr9l1D59imc//Q+jF9s+O85qnt/s3C4bNeqFcJrErzrWU+f1n3UOkIFhxMEJwYuLG69AlsnBEaUt8D6BGUcBTCcXvBttQG3a00v9ujZxAefR779dnnBp3e4KxAUT0+fxr26kNWnUZSfOtWgHRkKU8+cGLgw1YbLdWDrxMCI3gkLyjgKYGCjRq0zcBqEnuP8nfvdN+DzS3Cm/g6MLa7CxM0WXNh8zHoKTJ9kfYFlI8G7nl1EMmgcdd7MLa6po3F+bYtHcUxblFxY3DpQmV1GbhfbKvicR+zlm0EwRulHhHqnuAJB8fT0adzTNMq0VWl7ZvMsnPi5sLj1Uqd2Nkjj2CwEGNggo/Szc7WDSPCuZzVtGteqwGwQmJ7bRmpO/FxY3LqFpn9DmKoUBgz5UKn3o0VOdIFYHefqKkimKUdgzyBWLowroy2M7CG4g3qNwoCBjSmftvJwqGKwTY10UYbSxBQ/Cdm0/tDzcbkPeQ1HsG121XqZgKd0mV5jUCXwjHAM4xPXPP4xBOrkuCMul44TPxem9lmca7Us3FvoKJsqGNwgQflxO3OUVxr1RduJ3mNQodQzTqsGWXNg2jx+502LbpdOVtszNFJrX/dxYuDCVPtxr1Gs6pd7h+112MCPkrQfFnrMh0qYZ1A+fIlp+a4jV2BQQ+NulctWLr3dxriun7BSHlk5q+Lmpg62+tigCsQVc5ply8f1eanR/4M+06YBPTPVWV0/UTzdm+YSDGpkfDGHb62L/Cc6AwFH/MSD2kw/qyJSRRbYfcNgUPmC77a1X72iwA/xk9f2utUboA0TYOrCPtdgUCPKmV+cS/uMZvsMbY0hHTyaHSz9kqxfBAz5NwCRH4IVES4BI+dgqBsA6mKXux7WO5AsAyVgCBh9fyxNwBjie4wsjw5S9mTz8Dy3m3iMnHuMPIs3zboJGAKGLL4NGhAwDI2S5kgktrMxbRMwBAzxGAYNCBiGRpFRPRujepr9JGAIGOIxDBoQMAyNkuZIJLaz4Y0EDAFDPIZBAwKGoVFkVM/GqJ5mP/WBUZu9Ahdql+SQNii0BkJgnB4vgxzSBqKBMvwPL8whhhSdyl4AAAAASUVORK5CYII=;" parent="1" vertex="1">
          <mxGeometry x="-1594.0036363636366" y="776.9999999999995" width="198" height="60" as="geometry" />
        </mxCell>
        <mxCell id="UeKgmQtvJm2V4L9KuCcI-68" value="&lt;b style=&quot;border-color: var(--border-color); font-size: 72px;&quot;&gt;MariaDB&lt;/b&gt;" style="html=1;whiteSpace=wrap;shape=isoCube2;backgroundOutline=1;isoAngle=15;" parent="1" vertex="1">
          <mxGeometry x="-726" y="612" width="419" height="391" as="geometry" />
        </mxCell>
        <mxCell id="JK0r9D_tuI9x6pK2y3JA-1" value="" style="shape=image;verticalLabelPosition=bottom;labelBackgroundColor=default;verticalAlign=top;aspect=fixed;imageAspect=0;image=data:image/png,iVBORw0KGgoAAAANSUhEUgAAAUkAAAA/CAYAAABthjrAAAAN1klEQVR4Ae1dbXNVtxHm52QCOAYMtjsGQ9LEcYhTLqRJW9zpTFOP+xI65kNTCpiXaelkOm0oUzdtKfQHMP4R9KP/h/s71Fkdr+7etaQjHelcX3yfD3d0XqTVavfRo5V0zrkn3jo1Z/CDDYABYAAY8GPgBAzjNwzsArsAA8AAYWCEJJcurxr8YANgABgABlbdDPsQSS5e/MBc+M57+MEGwAAwMLUYIB7kmcQhkiSCfOfcRfxgA2AAGJhaDJxffA8kiYEAAyEwAAyEMACSRIQwtRFCqFPgOghTYgAkCZIESQIDwEAEAyDJiHHkaIJjRBfAwHRiACQJkkQUAQwAAxEMgCQjxkHkMJ2RA/wOv0sMgCRBkogigAFgIIIBkGTEOHI0wTGiC2BgOjEAkgRJIooABoCBCAZAkhHjIHKYzsgBfoffJQZAkiBJRBHAADAQwcBYSHL23Wtm7uavzYUvn5j5r56ZhQfP7Y+O6RrdozySvXGM0RwYAAYmAQO9kuS5tR+b+d/81Sw+/k/Sj/JSmUkwDHRABwUGgAHCQC8kOXtx1cxv/SmJGH0ESmVJBkAKkAIDwMBRY6A6SZ754Ptm4d63nQmSSZNkkKyjNhDqRycFBqYbA1VJkkht8eGLYoJkoiRZIMrpBigICv4/agxUI0maHteIIB1BHqxjkkxMvdFRjrqjlNY/2L5t/vff+2b/1boZnFnCDCmym9zV1n3ZuBpJlqxBamLU5yQ7x3BLN5bNx/cvm+t/vmJu/OWK+fjBZbP8o0tZMnLqy8k7s7Zu9l7fsx2GOs3uRnqHmdnYbDra602zNQEdjUG5tzOYCNuSH2bODMyusC/ZWP/2X902e682zdPtwdgIi211HElysLFudnfIpkNcNwPCgZ03VsZi575sXIUkaUdaE1vt89Rd76VPL5kb31zx/pbXl4+8M2uS3M8gvHGS5GBtYJ4S8LdXvDaTZLT/+rZ5upZO9jmDSm5eqZcmx9A5EeZWz/r31YHZPm3+4nw108HG5siAH7IvXffhqLbOfdm4CkmmPOaz8OiFmdu8b2Y+uWlOXrlq3r74vjn5/jUzM/iJOferR2bx0cso0VIdKQ6+eq8hyOWby2Z27pL90TER5ye/v5IkI6Wernk0SYYA5JM/LpKcObNinh5EBT5ws24MykmNJENR+mBtxWxtb45EPkT0uxv+AYHbW5KyrfqIJFP9VaK/LEv1be0Mo0aKzHcpKlcDzczaiqEo0zfY9qFzXzYuJkl6CLwtapy/9605ffUHlhiJHH2/d278tFVOygPn175uSPLM4nAdb/ZCE11e/2ZySNJ2yp2DdarESGzSSFJ2nEk5lpFkiCSlrtSJuy5/SDltx311YKq3D8IJtUfWVTKwSDmxgTikh+96XzYuJkl6WyZGkvOPXpjTVz+3xHh69VMbNc7f3bFl5u/+3cz98qFprj+OyqE6qC6fceQ1WoOkqFFeo2Oeguvr4z7nSLKZog7Xz1IiDJDkcOAL+S2XJEnOzJrwQ8byR0gH3/W+OrDVPzHy9+mVe43bQTOglEEoJH+qSPLCrT9Gye3sxu8sQZ766HOz8PC5P2/LVJtJmOoKGZ2vU7T45pDkkmHiS5l2c96cdUy2S07aB4Bz6i/J24UkqT62bYofuujH5JIyGObKH5e/eICvYaM+dO7LxsWRZNt6JE+z52498RNk4iuLRJQp65LXVSTJEWRqmgvQ3PwMtCaSXBqZKrWRH3fktnykE0VHdi1I7TjaXd3A2huDjDpB6CejB16X2m/Z3aa1Kb0GaDua3TAJrwPaXdNXzZIE69NssoTLdCZJEY21EVkXvdi2NWWzTLaNL5X+kljt0gbn74JoO1dnjXlLrgfLVBZDYmORZbfZWNoh5biYJBe2/xUlv5OXP7KRZDCKzCBJqqutUUyGnI/PU1Mu11eqSZLq4Wvk9BjhaMD4dCQQbQkQ+TqOrYcISj1GxCALlaHrstO5ThMhyQFtkEQeyfERfkobQutYXUmSbMnt5wFM27dELyc78JxkF9ksM9VfFmsJ+PDZVtrVd1/bKnSeq/Mo5gdmVw/6x4sk42TKU+pYmkKS2jmp5Mj5dPna50yIuiNK8EgikvWPAsb/yA0TF3Uc2nWWO44uojsgrX0PUVJ91GFTdre5rhCxyzbpCJDqaKKZw2Tt5NKOs3iWUROJz06yM/vuS3vqY/aNHgw4X4lebItQlFMiO9Vf1I6u9QyxV+dxr1Sdh/Vumt2de8YOqmoXnf3TZmPOl5sWR5Kp0+3zt/4QjThj5Mj3Uqbb2gBMfqmpLl/7nDuiJkkJGl90RXpIwOgoUN5vOnlkSioeaPdFBVIX3322ietwnkiSdbVkLUZ7LhtKZbkQybnO4Jn29UWSpXo5nT2RZKnsVH+V1OP099g85MvY9S466z6j5TsdPTbWeXPOi0mydePmizvNzvbKDbOw/U8vUc7f/ZtZuP8P7z0mSEpTNm5041PJkfPp8rXPQyRJ9fC9ELEwyH0kKkEXiuxkWxygPKCXsrqQpCyfogvrlVouRoSxe1xPKJVlZbtr6OXsrTpwDdlShtRbtlPmiflE2kAOUk5/D15kPanHUp+QziSLMR/qE7I+p6OysczT5biYJNseAVp4/NKcWv3MEuXJ737PnPv5trGPAD16aeZ/+8yc/dkdc+rdNfsc5cLDf0eJMuURIG0EJr/UVJevfc5EGBoVnaM9z04yYLwkeRAdhuTqdrAeTdQ5OnVPBXAokmTZqbqwbjnluG7dwUKdnOuIpbKslFtDL+dX1YFryE7xV2k9Tv8jIskULDkdlY1jPk+5V0ySSQ+T390x9AiQ7yFyvjb7w1+0vnWT8jC5bnQqOXI+Xb72eRtYZUfV61dRksx8rzvWsWL3pD2YqHRkEtNTltfHrlwCyIN1i3e3ZSSk6/Kds2/0wFFDr1AHriE7xV+l9Tj9j4wkD69dax86HRPwo8vGzotJkoS3rUvSVJkiyrNf3GnevLm8at5e/tCcXLluZj/bNOdvfx2NIKl8l/VI0o3JLzWNGavGPe6IsZGRAa2nGHzdF0nmAiTWsWL3pA1CRJWrC8vkctTu1N8hgi4hSTfQjG5O1NCLZeiBj6+ntpfyHW5z+0ZbaT1D7I3ahn2Xm6ZibFjvG06Sk/SBC+2sVHLkfLp87fMUkqQ6HQGJkTsGGO4EuhOG9I+BNHZPynM6qo2bXF1YJpcrI4zh2zO5kaRrj7A56VZDL5ah/cPXy9o8BpIUm325dmX/yjQVYzHMS3nST9rGOl/ueZVIkiqdpE+lSSMw+aWmsmwfx6kkOTLtPiChGGC4s/miTF87JEg16OU9uTan5ThSqUySJSCXdtPt0vrLc1lOt9nZtmAaF5IRui51aztO8VdpPdI+Jf7htqToTHljmGdZnJa2keXotBpJ4qO77e8Vk/FTSdLmPZj+UZRBHT4GmBy5bXqkAjhEkkM986Zmw3LtUysNZD6XnTmHJF1bVBQp/ZA6ALEuMg114Dptbo8ka9TDbWA8yvblHqdiLEdv1q8Gicv2VCNJEoq/b2gnylwyG+m8bgf7MIlIctBrVtLhfBwDVCqAnW4qkpS66KiM6/elslwOwUlZXWTQdxF5uuvTt4tMqRMdh+xdQ3aKv+rUM1zKKBkwyB4pOtt8bp34MOZTbazz5Z5XJUmqnIiyxt84HNc/AsslSc5PnXhvp3nFLwRQ7ojNSJ/2MLmPjCSAY4QbIknCwaguo48YxUDqZFJEF3izIlY+hwyonfIVzth3MUv1Ynv4opxS2dn+6mhbsjtHdoQxi8MOPrJyxFtdMYxxfSHMSyzEbCzz5R5XJ0lSgKbeJWuUVPa4/q8Nk15sd1s7kZ3P0U4IMLKzNKSqXkskUhDvUsfAyXVaPQMfxHCdW0WSpH+KLr7XEiXJUd30IVz5nzAk137RmtrhrXcY7YQGAPdFbPFOuS+ClH4o1cvZ07OuWSqb9HTy6fnagL9q1GN9q75IvrezbrboA7v6WwCRj+4m63wcI0kJLNr1Tnk8iN+qobypf9Mg63mTjruQpCacEEmSHWzehA9c2Pe6FailHVlPJmZOJfHESNLpoj5IwHI49bXFft+xpRyV95G8JAKuI5ba99cTo6ESvRyJeUjS2oq+admxzU350Y8Hc5ulv2rUQzJy5LAevkEoBWPHNpJkQ3JKD4HT2zIXvnxi5r96ZhYePLc/OqZrdK/Lg+Is/01KGRg5kSS1j8sR6HzEom3gi5aozmbUT5v++khBdro2kmSd+LNc8mtA9s+4bATi14XI3vd5NduGyJ94tZEkl/f93QDrG0u76tVGklRnV9msb5u/XL6OtuXyMnU48xD8Hv2tw856MLIlOW06Tw1JSqPiuH1zBzaCjYCBycFAL2uScPDkOBi+gC+AgTIMgCR7+JN0gLIMlLAf7DdJGABJgiRbv/Y+SYCFLiDQcWMAJAmSBEkCA8BABAMgyYhxxj1ioT5EScDA5GEAJAmSRBQBDAADEQyAJCPGwag+eaM6fAKfjBsDIEmQJKIIYAAYiGAAJBkxzrhHLNSHKAkYmDwMgCRBkogigAFgIIIBkGTEOBjVJ29Uh0/gk3FjACQJkkQUAQwAAxEMgCQjxhn3iIX6ECUBA5OHAZAkSBJRBDAADEQwECXJxYsfGMqAH2wADAAD04oB4sG3Ts3Z3wk+QNoYBHaAHYABYEBiACR5MFpIo+AYnQQYAAYYAyBJkKSbVjAokIIggIEhBv4PllmAj9rOAxUAAAAASUVORK5CYII=;" parent="1" vertex="1">
          <mxGeometry x="-1233" y="451" width="329" height="63" as="geometry" />
        </mxCell>
        <mxCell id="Npa9Y6lDgFgyrHnARazE-1" value="&lt;b style=&quot;&quot;&gt;&lt;font style=&quot;font-size: 24px;&quot;&gt;모든 Ctrl은 .do 로 servlet으로 연결하며,&amp;nbsp; DAO &amp;lt;-&amp;gt; MariaDB로 데이터 불러온다.&lt;/font&gt;&lt;/b&gt;" style="text;html=1;strokeColor=none;fillColor=none;align=center;verticalAlign=middle;whiteSpace=wrap;rounded=0;" parent="1" vertex="1">
          <mxGeometry x="-1570" y="-942" width="471" height="54" as="geometry" />
        </mxCell>
        <mxCell id="Npa9Y6lDgFgyrHnARazE-88" value="&lt;b style=&quot;border-color: var(--border-color); font-size: 14px;&quot;&gt;DB의 저장된 멤버의 값을&lt;br&gt;전달받아 목록으로 진행&lt;/b&gt;" style="text;html=1;strokeColor=none;fillColor=none;align=center;verticalAlign=middle;whiteSpace=wrap;rounded=0;" parent="1" vertex="1">
          <mxGeometry x="-462" y="-1170" width="204" height="49" as="geometry" />
        </mxCell>
        <mxCell id="Npa9Y6lDgFgyrHnARazE-89" value="&lt;span style=&quot;border-color: var(--border-color); font-size: 14px;&quot;&gt;&lt;b&gt;공지사항의 id값을 목록으로 불러온다.&lt;/b&gt;&lt;/span&gt;" style="text;html=1;strokeColor=none;fillColor=none;align=center;verticalAlign=middle;whiteSpace=wrap;rounded=0;" parent="1" vertex="1">
          <mxGeometry x="-1073" y="-492" width="252" height="49" as="geometry" />
        </mxCell>
        <mxCell id="Npa9Y6lDgFgyrHnARazE-90" value="&lt;b style=&quot;border-color: var(--border-color); font-size: 14px;&quot;&gt;작성한 공지사항의 내용을 &lt;br&gt;DAO -&amp;gt; DB 로 수정하여 저장&lt;br&gt;&lt;/b&gt;" style="text;html=1;strokeColor=none;fillColor=none;align=center;verticalAlign=middle;whiteSpace=wrap;rounded=0;" parent="1" vertex="1">
          <mxGeometry x="-363" y="-65" width="228" height="49" as="geometry" />
        </mxCell>
        <mxCell id="Npa9Y6lDgFgyrHnARazE-91" value="" style="group" parent="1" vertex="1" connectable="0">
          <mxGeometry x="-1535" y="-471" width="389" height="49" as="geometry" />
        </mxCell>
        <mxCell id="Npa9Y6lDgFgyrHnARazE-95" value="" style="group" parent="Npa9Y6lDgFgyrHnARazE-91" vertex="1" connectable="0">
          <mxGeometry x="17" width="354" height="49" as="geometry" />
        </mxCell>
        <mxCell id="Npa9Y6lDgFgyrHnARazE-92" value="&lt;b style=&quot;border-color: var(--border-color); font-size: 14px;&quot;&gt;공지사항의 id값을 목록으로 불러온다.&lt;/b&gt;&lt;span style=&quot;font-size: 14px;&quot;&gt;&lt;b&gt;&lt;br&gt;&lt;/b&gt;&lt;/span&gt;" style="text;html=1;strokeColor=none;fillColor=none;align=center;verticalAlign=middle;whiteSpace=wrap;rounded=0;" parent="Npa9Y6lDgFgyrHnARazE-95" vertex="1">
          <mxGeometry x="32.74098360655737" width="290.7934426229508" height="49" as="geometry" />
        </mxCell>
        <mxCell id="Npa9Y6lDgFgyrHnARazE-93" value="" style="shape=flexArrow;endArrow=classic;html=1;rounded=0;" parent="Npa9Y6lDgFgyrHnARazE-95" edge="1">
          <mxGeometry width="50" height="50" relative="1" as="geometry">
            <mxPoint x="56.11803278688524" y="26" as="sourcePoint" />
            <mxPoint y="26" as="targetPoint" />
          </mxGeometry>
        </mxCell>
        <mxCell id="Npa9Y6lDgFgyrHnARazE-94" value="" style="shape=flexArrow;endArrow=classic;html=1;rounded=0;" parent="Npa9Y6lDgFgyrHnARazE-95" edge="1">
          <mxGeometry width="50" height="50" relative="1" as="geometry">
            <mxPoint x="300.43278688524583" y="26" as="sourcePoint" />
            <mxPoint x="354" y="26" as="targetPoint" />
          </mxGeometry>
        </mxCell>
        <mxCell id="Npa9Y6lDgFgyrHnARazE-98" value="" style="group" parent="1" vertex="1" connectable="0">
          <mxGeometry x="-1529" y="-28" width="354" height="49" as="geometry" />
        </mxCell>
        <mxCell id="Npa9Y6lDgFgyrHnARazE-99" value="&lt;b style=&quot;border-color: var(--border-color); font-size: 14px;&quot;&gt;해당 공지사항의 id값을 목록으로 불러온다.&lt;/b&gt;&lt;span style=&quot;font-size: 14px;&quot;&gt;&lt;b&gt;&lt;br&gt;&lt;/b&gt;&lt;/span&gt;" style="text;html=1;strokeColor=none;fillColor=none;align=center;verticalAlign=middle;whiteSpace=wrap;rounded=0;" parent="Npa9Y6lDgFgyrHnARazE-98" vertex="1">
          <mxGeometry x="32.74098360655737" width="290.7934426229508" height="49" as="geometry" />
        </mxCell>
        <mxCell id="Npa9Y6lDgFgyrHnARazE-100" value="" style="shape=flexArrow;endArrow=classic;html=1;rounded=0;" parent="Npa9Y6lDgFgyrHnARazE-98" edge="1">
          <mxGeometry width="50" height="50" relative="1" as="geometry">
            <mxPoint x="39.11803278688524" y="26" as="sourcePoint" />
            <mxPoint x="-17" y="26" as="targetPoint" />
          </mxGeometry>
        </mxCell>
        <mxCell id="Npa9Y6lDgFgyrHnARazE-101" value="" style="shape=flexArrow;endArrow=classic;html=1;rounded=0;" parent="Npa9Y6lDgFgyrHnARazE-98" edge="1">
          <mxGeometry width="50" height="50" relative="1" as="geometry">
            <mxPoint x="317.43278688524583" y="26" as="sourcePoint" />
            <mxPoint x="371" y="26" as="targetPoint" />
          </mxGeometry>
        </mxCell>
        <mxCell id="Npa9Y6lDgFgyrHnARazE-102" value="&lt;span style=&quot;border-color: var(--border-color); font-size: 14px;&quot;&gt;&lt;b&gt;해당 공지사항을 삭제한다.&lt;/b&gt;&lt;/span&gt;" style="text;html=1;strokeColor=none;fillColor=none;align=center;verticalAlign=middle;whiteSpace=wrap;rounded=0;" parent="1" vertex="1">
          <mxGeometry x="-1305" y="355" width="252" height="49" as="geometry" />
        </mxCell>
        <mxCell id="Npa9Y6lDgFgyrHnARazE-103" value="&lt;b style=&quot;border-color: var(--border-color); font-size: 14px;&quot;&gt;DB의 저장된 공지사항 테이블을&lt;br&gt;전달받아 글 추가로 진행&lt;/b&gt;" style="text;html=1;strokeColor=none;fillColor=none;align=center;verticalAlign=middle;whiteSpace=wrap;rounded=0;" parent="1" vertex="1">
          <mxGeometry x="-784" y="-289" width="204" height="49" as="geometry" />
        </mxCell>
        <mxCell id="Npa9Y6lDgFgyrHnARazE-104" value="&lt;b style=&quot;border-color: var(--border-color); font-size: 14px;&quot;&gt;작성한 공지사항의 내용을 &lt;br&gt;DAO -&amp;gt; DB 로 수정하여 저장&lt;br&gt;&lt;/b&gt;" style="text;html=1;strokeColor=none;fillColor=none;align=center;verticalAlign=middle;whiteSpace=wrap;rounded=0;" parent="1" vertex="1">
          <mxGeometry x="-331" y="472" width="228" height="49" as="geometry" />
        </mxCell>
        <mxCell id="Npa9Y6lDgFgyrHnARazE-105" value="&lt;b style=&quot;border-color: var(--border-color); font-size: 14px;&quot;&gt;&amp;nbsp;선택한 공지사항 id값을&lt;br&gt;전달받아 글 수정으로 진행&lt;/b&gt;" style="text;html=1;strokeColor=none;fillColor=none;align=center;verticalAlign=middle;whiteSpace=wrap;rounded=0;" parent="1" vertex="1">
          <mxGeometry x="-823" y="194" width="204" height="49" as="geometry" />
        </mxCell>
        <mxCell id="mn0PReYYKdpnWjgUs3f4-1" value="&lt;span style=&quot;font-size: 14px;&quot;&gt;&lt;b&gt;같은 테이블을 공유하므로,&lt;br&gt;해당 표시되는 값이 같다.&lt;/b&gt;&lt;/span&gt;" style="text;html=1;strokeColor=none;fillColor=none;align=center;verticalAlign=middle;whiteSpace=wrap;rounded=0;" vertex="1" parent="1">
          <mxGeometry x="-1456" y="-221" width="228" height="49" as="geometry" />
        </mxCell>
      </root>
    </mxGraphModel>
  </diagram>
</mxfile>
